<?xml version="1.0" encoding="UTF-8" standalone="no"?>
<!-- Created with Inkscape (http://www.inkscape.org/) -->

<svg
   width="210mm"
   height="297mm"
   viewBox="0 0 210 297"
   version="1.1"
   id="svg4912"
   inkscape:version="1.1.2 (1:1.1+202202050950+0a00cf5339)"
   sodipodi:docname="thoth_init_ui_design.svg"
   xmlns:inkscape="http://www.inkscape.org/namespaces/inkscape"
   xmlns:sodipodi="http://sodipodi.sourceforge.net/DTD/sodipodi-0.dtd"
   xmlns="http://www.w3.org/2000/svg"
   xmlns:svg="http://www.w3.org/2000/svg">
  <sodipodi:namedview
     id="namedview4914"
     pagecolor="#ffffff"
     bordercolor="#666666"
     borderopacity="1.0"
     inkscape:pageshadow="2"
     inkscape:pageopacity="0.0"
     inkscape:pagecheckerboard="0"
     inkscape:document-units="mm"
     showgrid="false"
     showborder="false"
     inkscape:zoom="0.30870823"
     inkscape:cx="16429.753"
     inkscape:cy="574.97657"
     inkscape:window-width="1862"
     inkscape:window-height="1016"
     inkscape:window-x="58"
     inkscape:window-y="27"
     inkscape:window-maximized="1"
     inkscape:current-layer="layer1" />
  <defs
     id="defs4909">
    <filter
       style="color-interpolation-filters:sRGB"
       inkscape:label="Blur"
       id="filter201838-82-2"
       x="-0.045763993"
       y="-0.075458944"
       width="1.091528"
       height="1.1509179">
      <feGaussianBlur
         stdDeviation="6 6"
         result="blur"
         id="feGaussianBlur201836-9-1" />
    </filter>
    <filter
       style="color-interpolation-filters:sRGB"
       inkscape:label="Blur"
       id="filter201584-9-5"
       x="-0.030509329"
       y="-0.050305976"
       width="1.0610187"
       height="1.100612">
      <feGaussianBlur
         stdDeviation="4 4"
         result="blur"
         id="feGaussianBlur201582-6-9" />
    </filter>
    <filter
       style="color-interpolation-filters:sRGB"
       inkscape:label="Blur"
       id="filter212110-8-4-4"
       x="-0.04622211"
       y="-0.60113105"
       width="1.0924442"
       height="2.2022621">
      <feGaussianBlur
         stdDeviation="6 6"
         result="blur"
         id="feGaussianBlur212108-3-9-3" />
    </filter>
    <filter
       style="color-interpolation-filters:sRGB"
       inkscape:label="Drop Shadow"
       id="filter21379"
       x="-0.018747226"
       y="-0.030333648"
       width="1.0528353"
       height="1.0855029">
      <feFlood
         flood-opacity="0.505882"
         flood-color="rgb(0,0,0)"
         result="flood"
         id="feFlood21369" />
      <feComposite
         in="flood"
         in2="SourceGraphic"
         operator="in"
         result="composite1"
         id="feComposite21371" />
      <feGaussianBlur
         in="composite1"
         stdDeviation="3"
         result="blur"
         id="feGaussianBlur21373" />
      <feOffset
         dx="6"
         dy="6.0033"
         result="offset"
         id="feOffset21375" />
      <feComposite
         in="SourceGraphic"
         in2="offset"
         operator="over"
         result="composite2"
         id="feComposite21377" />
    </filter>
    <filter
       style="color-interpolation-filters:sRGB"
       inkscape:label="Drop Shadow"
       id="filter21835"
       x="-0.039376331"
       y="-0.024986229"
       width="1.1002337"
       height="1.0704299">
      <feFlood
         flood-opacity="0.505882"
         flood-color="rgb(0,0,0)"
         result="flood"
         id="feFlood21825" />
      <feComposite
         in="flood"
         in2="SourceGraphic"
         operator="in"
         result="composite1"
         id="feComposite21827" />
      <feGaussianBlur
         in="composite1"
         stdDeviation="3"
         result="blur"
         id="feGaussianBlur21829" />
      <feOffset
         dx="4"
         dy="6.0033"
         result="offset"
         id="feOffset21831" />
      <feComposite
         in="SourceGraphic"
         in2="offset"
         operator="over"
         result="composite2"
         id="feComposite21833" />
    </filter>
    <filter
       style="color-interpolation-filters:sRGB"
       inkscape:label="Drop Shadow"
       id="filter21877"
       x="-0.039467235"
       y="-0.059099075"
       width="1.1004651"
       height="1.1665854">
      <feFlood
         flood-opacity="0.505882"
         flood-color="rgb(0,0,0)"
         result="flood"
         id="feFlood21867" />
      <feComposite
         in="flood"
         in2="SourceGraphic"
         operator="in"
         result="composite1"
         id="feComposite21869" />
      <feGaussianBlur
         in="composite1"
         stdDeviation="3"
         result="blur"
         id="feGaussianBlur21871" />
      <feOffset
         dx="4"
         dy="6.0033"
         result="offset"
         id="feOffset21873" />
      <feComposite
         in="SourceGraphic"
         in2="offset"
         operator="over"
         result="composite2"
         id="feComposite21875" />
    </filter>
    <filter
       style="color-interpolation-filters:sRGB"
       inkscape:label="Drop Shadow"
       id="filter21865"
       x="-0.039467731"
       y="-0.058601694"
       width="1.1004664"
       height="1.1651834">
      <feFlood
         flood-opacity="0.505882"
         flood-color="rgb(0,0,0)"
         result="flood"
         id="feFlood21855" />
      <feComposite
         in="flood"
         in2="SourceGraphic"
         operator="in"
         result="composite1"
         id="feComposite21857" />
      <feGaussianBlur
         in="composite1"
         stdDeviation="3"
         result="blur"
         id="feGaussianBlur21859" />
      <feOffset
         dx="4"
         dy="6.0033"
         result="offset"
         id="feOffset21861" />
      <feComposite
         in="SourceGraphic"
         in2="offset"
         operator="over"
         result="composite2"
         id="feComposite21863" />
    </filter>
    <filter
       style="color-interpolation-filters:sRGB"
       inkscape:label="Drop Shadow"
       id="filter21889"
       x="-0.038824852"
       y="-0.088948013"
       width="1.0988299"
       height="1.250722">
      <feFlood
         flood-opacity="0.505882"
         flood-color="rgb(0,0,0)"
         result="flood"
         id="feFlood21879" />
      <feComposite
         in="flood"
         in2="SourceGraphic"
         operator="in"
         result="composite1"
         id="feComposite21881" />
      <feGaussianBlur
         in="composite1"
         stdDeviation="3"
         result="blur"
         id="feGaussianBlur21883" />
      <feOffset
         dx="4"
         dy="6.0033"
         result="offset"
         id="feOffset21885" />
      <feComposite
         in="SourceGraphic"
         in2="offset"
         operator="over"
         result="composite2"
         id="feComposite21887" />
    </filter>
    <filter
       style="color-interpolation-filters:sRGB"
       inkscape:label="Drop Shadow"
       id="filter26514"
       x="-0.19100542"
       y="-0.19100542"
       width="1.4587764"
       height="1.4587764">
      <feFlood
         flood-opacity="0.505882"
         flood-color="rgb(0,0,0)"
         result="flood"
         id="feFlood26504" />
      <feComposite
         in="flood"
         in2="SourceGraphic"
         operator="in"
         result="composite1"
         id="feComposite26506" />
      <feGaussianBlur
         in="composite1"
         stdDeviation="3"
         result="blur"
         id="feGaussianBlur26508" />
      <feOffset
         dx="3"
         dy="3"
         result="offset"
         id="feOffset26510" />
      <feComposite
         in="SourceGraphic"
         in2="offset"
         operator="over"
         result="composite2"
         id="feComposite26512" />
    </filter>
  </defs>
  <g
     inkscape:label="Layer 1"
     inkscape:groupmode="layer"
     id="layer1">
    <rect
       style="fill:#ffffff;fill-opacity:1;stroke:#000000;stroke-width:1.42588;stroke-miterlimit:4;stroke-dasharray:none;stroke-opacity:1"
       id="rect210511"
       width="752.78973"
       height="465.24963"
       x="-225.78346"
       y="-77.438805"
       rx="16.517429"
       ry="16.768402" />
    <g
       id="g214182"
       transform="translate(1652.7954,-141.60751)">
      <g
         id="g201874-0-9"
         transform="matrix(0.37873294,0,0,0.37873294,-923.70018,706.57435)">
        <g
           id="g201860-2-1"
           transform="translate(697.2331,-197.32012)">
          <path
             style="fill:#000000;stroke-width:0.422243"
             d="m -2227.6482,-894.77504 c -2.5844,-1.30076 -3.7972,-3.67236 -3.8085,-7.44828 v -2.76101 l -2.4198,-1.90608 c -5.6815,-4.47653 -8.0262,-11.35781 -6.2252,-18.27223 0.3418,-1.32613 1.1055,-3.16748 1.6886,-4.09179 0.5846,-0.92482 1.0615,-1.93456 1.0615,-2.24474 0,-0.31069 -0.7436,-0.9823 -1.6528,-1.49286 -3.4503,-1.93923 -7.7005,-7.79108 -8.9588,-12.33493 -0.6649,-2.40216 -0.6732,-8.51603 0,-10.88349 0.8963,-3.21668 2.9189,-6.66172 5.5091,-9.38337 l 2.5222,-2.65122 -3.1882,-2.97745 c -1.7533,-1.63786 -3.6811,-3.74486 -4.2844,-4.68263 -1.5788,-2.45651 -3.7122,-6.73521 -4.0478,-8.11781 -0.9667,-3.9856 -1.193,-5.2833 -1.3779,-7.9014 -0.1139,-1.6021 0,-3.7397 0.2538,-4.7499 0.2537,-1.0103 0.6793,-2.7393 0.9491,-3.84267 0.6763,-2.7704 4.1369,-9.4279 5.884,-11.3221 0.4453,-0.4816 0.8041,-1.0165 0.8041,-1.1936 0,-0.1761 -0.4763,0.2434 -1.061,0.9393 -1.1588,1.3769 -4.1824,2.6036 -6.4168,2.6036 -6.3116,0 -10.3206,-7.3825 -6.9206,-12.744 1.6607,-2.6186 5.114,-4.3755 7.8605,-3.9991 1.962,0.2693 4.4869,1.6368 5.8643,3.1768 0.7565,0.8456 1.2018,0.8995 7.4954,0.8995 h 6.6902 v -3.4544 -3.4544 l -19.107,-19.1525 c -10.508,-10.5339 -19.4637,-19.3549 -19.9007,-19.6025 -0.696,-0.3935 -3.297,2.047 -21.112,19.8148 -21.4552,21.3999 -21.7281,21.6303 -24.8847,21.0338 -2.2178,-0.4195 -4.0789,-1.8274 -4.9488,-3.7444 -0.9942,-2.1898 -1.0377,-3.7329 -0.1553,-5.5012 0.3728,-0.7431 5.7306,-6.4267 11.9098,-12.6301 6.1791,-6.2035 11.1408,-11.3729 11.0258,-11.4878 -0.1139,-0.1139 -0.961,0.052 -1.8812,0.3676 -0.9191,0.3159 -3.4771,1.0559 -5.6835,1.6426 -4.7629,1.266 -10.2347,2.7449 -18.5788,5.0212 -7.4421,2.0309 -10.33,2.3696 -12.1553,1.4256 -1.4297,-0.7395 -3.1975,-2.8584 -3.664,-4.3921 -0.8161,-2.6854 1.3478,-6.7317 4.2492,-7.9439 0.727,-0.3055 4.2445,-1.3194 7.818,-2.2571 7.7507,-2.0346 14.6345,-4.0064 14.895,-4.2663 0.1036,-0.1036 -13.6766,-0.1347 -30.6217,-0.072 -20.8649,0.078 -31.3502,-0.052 -32.4837,-0.3366 -6.2827,-1.6917 -7.2251,-9.9022 -1.4478,-12.6177 1.8864,-0.887 1.9123,-0.887 55.1724,-0.887 52.1484,0 53.3223,0 55.0021,0.8316 1.119,0.5422 7.6626,6.7896 18.7962,17.946 9.3932,9.4129 17.2356,16.9575 17.4266,16.7664 0.1916,-0.1916 0.2952,-4.0395 0.2331,-8.5512 l -0.114,-8.2033 -2.8583,-0.2848 c -1.5721,-0.1553 -3.4725,-0.6343 -4.2228,-1.0651 -1.5001,-0.8606 -3.2643,-3.8971 -3.2643,-5.6189 0,-2.0894 1.7564,-4.7836 3.7842,-5.8063 1.818,-0.9165 2.2929,-0.9496 13.528,-0.9496 11.2356,0 11.7099,0.052 13.5279,0.9496 1.3759,0.6944 2.1397,1.4577 2.8335,2.8341 1.1957,2.37 1.1957,3.5765 0,5.9342 -1.2086,2.385 -2.9308,3.3658 -6.5359,3.722 l -2.8583,0.2848 -0.1139,8.2033 c -0.062,4.5117 0.052,8.3601 0.2382,8.5512 0.1916,0.1916 8.0339,-7.3535 17.4271,-16.7664 11.1336,-11.1564 17.6767,-17.4038 18.7957,-17.946 1.6804,-0.814 2.8543,-0.8316 55.0016,-0.8316 53.2606,0 53.2865,0 55.1729,0.887 5.7773,2.7155 4.8354,10.926 -1.4478,12.6177 -1.1335,0.3055 -11.6188,0.4142 -32.4832,0.3366 -16.9456,-0.062 -30.7252,-0.052 -30.6217,0.072 0.2589,0.2589 7.1438,2.2317 14.895,4.2663 3.5735,0.9377 7.091,1.9537 7.8175,2.2571 2.9014,1.2122 5.0658,5.2585 4.2492,7.9439 -0.466,1.5337 -2.2338,3.6526 -3.664,4.3921 -1.8248,0.944 -4.7127,0.6053 -12.1553,-1.4256 -8.5238,-2.3255 -13.6735,-3.7174 -18.4731,-4.9933 -2.2644,-0.6022 -4.8696,-1.3536 -5.7892,-1.6705 -0.9202,-0.3158 -1.7668,-0.4815 -1.8812,-0.3676 -0.114,0.1139 4.8467,5.2843 11.0264,11.4878 6.1791,6.2034 11.538,11.887 11.9092,12.6301 1.8543,3.7148 -0.7441,8.4212 -5.1036,9.2456 -3.1571,0.5965 -3.43,0.3676 -24.8847,-21.0338 -17.8145,-17.7678 -20.416,-20.2093 -21.1125,-19.8148 -0.4401,0.2486 -9.3916,9.0686 -19.9007,19.6025 l -19.1065,19.1525 v 3.4544 3.4544 h 6.6908 c 6.2925,0 6.7378,-0.052 7.4943,-0.8995 1.3774,-1.54 3.9023,-2.9075 5.8648,-3.1768 2.746,-0.378 6.1999,1.3805 7.8605,3.9991 3.4,5.3615 -0.6089,12.744 -6.9206,12.744 -2.2349,0 -5.2579,-1.2267 -6.4163,-2.6036 -0.5841,-0.6933 -1.0615,-1.1164 -1.0615,-0.9393 0,0.1761 0.3624,0.7141 0.8036,1.1936 1.7482,1.8942 5.2077,8.5517 5.8845,11.3221 0.2693,1.10337 0.6965,2.83237 0.9492,3.84267 0.2537,1.0102 0.3676,3.1478 0.2537,4.7499 -0.1812,2.6181 -0.4091,3.9158 -1.3774,7.9014 -0.3366,1.3826 -2.469,5.6613 -4.0483,8.11781 -0.6027,0.93777 -2.5306,3.04477 -4.2839,4.68263 l -3.1887,2.97745 2.5228,2.65122 c 2.5906,2.72165 4.6127,6.16669 5.509,9.38337 0.6592,2.36746 0.6525,8.48133 0,10.88349 -1.2582,4.54385 -5.509,10.3957 -8.9587,12.33493 -0.9093,0.51263 -1.6529,1.18269 -1.6529,1.49286 0,0.31069 0.4764,1.32044 1.061,2.24474 0.5831,0.92431 1.3438,2.76566 1.6891,4.09179 1.801,6.91442 -0.5431,13.7957 -6.2252,18.27223 l -2.4197,1.90608 v 2.76101 c 0,3.77592 -1.2236,6.14752 -3.8086,7.44828 -1.0449,0.5261 -2.3747,0.95641 -2.9557,0.95641 -0.5804,0 -1.9102,-0.42979 -2.9557,-0.95641 z m -4.2228,-56.02266 c 0,-6.27025 -0.145,-11.40027 -0.3314,-11.40027 -1.3494,0 -5.1005,3.66615 -6.264,6.12215 -2.1148,4.4667 -1.0139,10.81721 2.4239,13.9759 1.6062,1.47577 3.3497,2.703 3.8401,2.703 0.1812,0 0.3314,-5.13053 0.3314,-11.40078 z m 16.057,10.7038 c 0.5748,-0.38318 1.6845,-1.28626 2.4679,-2.00602 4.6397,-4.2632 4.6397,-13.13185 0,-17.39556 -1.6057,-1.47578 -3.3492,-2.70249 -3.8401,-2.70249 -0.1761,0 -0.3314,5.13002 -0.3314,11.40027 0,6.27025 0.145,11.40078 0.3314,11.40078 0.1812,0 0.7979,-0.31587 1.3722,-0.69698 z m -16.057,-52.74383 v -18.39497 l -1.7704,0.9772 c -2.4804,1.3691 -6.2604,5.2227 -7.615,7.7646 -4.0799,7.65287 -2.9744,16.97977 2.7563,23.24997 1.9253,2.10703 5.4319,4.76758 6.3127,4.78985 0.1761,0.004 0.3159,-8.26955 0.3159,-18.38665 z m 16.6908,17.30959 c 2.5213,-1.47734 6.2294,-5.57689 7.5006,-8.29129 2.7698,-5.9156 2.6005,-12.9511 -0.4453,-18.67147 -1.3546,-2.5419 -5.1347,-6.3955 -7.6156,-7.7646 l -1.7699,-0.9772 v 18.39497 c 0,10.1171 0.1088,18.39441 0.2382,18.39441 0.1295,0 1.0745,-0.48675 2.0925,-1.08482 z"
             id="path25722-8-7-4" />
          <path
             style="fill:#ffffff;fill-opacity:1;stroke-width:0.422243;filter:url(#filter201838-82-2)"
             d="m -2227.6482,-894.77506 c -2.5844,-1.30076 -3.7972,-3.67236 -3.8085,-7.44828 v -2.76101 l -2.4198,-1.90608 c -5.6815,-4.47653 -8.0262,-11.35784 -6.2252,-18.27224 0.3418,-1.3261 1.1055,-3.1675 1.6886,-4.0918 0.5846,-0.9248 1.0615,-1.9345 1.0615,-2.2447 0,-0.3107 -0.7436,-0.9823 -1.6528,-1.4929 -3.4503,-1.9392 -7.7005,-7.7911 -8.9588,-12.3349 -0.6649,-2.4022 -0.6732,-8.516 0,-10.8835 0.8963,-3.2167 2.9189,-6.6617 5.5091,-9.3834 l 2.5222,-2.6512 -3.1882,-2.9774 c -1.7533,-1.6379 -3.6811,-3.7449 -4.2844,-4.6827 -1.5788,-2.4565 -3.7122,-6.7352 -4.0478,-8.1178 -0.9667,-3.9856 -1.193,-5.2833 -1.3779,-7.9014 -0.1139,-1.6021 0,-3.7397 0.2538,-4.7499 0.2537,-1.0103 0.6793,-2.7393 0.9491,-3.84263 0.6763,-2.7704 4.1369,-9.4279 5.884,-11.3221 0.4453,-0.4816 0.8041,-1.0165 0.8041,-1.1936 0,-0.1761 -0.4763,0.2434 -1.061,0.9393 -1.1588,1.3769 -4.1824,2.6036 -6.4168,2.6036 -6.3116,0 -10.3206,-7.3825 -6.9206,-12.744 1.6607,-2.6186 5.114,-4.3755 7.8605,-3.9991 1.962,0.2693 4.4869,1.6368 5.8643,3.1768 0.7565,0.8456 1.2018,0.8995 7.4954,0.8995 h 6.6902 v -3.4544 -3.4544 l -19.107,-19.1525 c -10.508,-10.5339 -19.4637,-19.3549 -19.9007,-19.6025 -0.696,-0.3935 -3.297,2.047 -21.112,19.8148 -21.4552,21.3999 -21.7281,21.6303 -24.8847,21.0338 -2.2178,-0.4195 -4.0789,-1.8274 -4.9488,-3.7444 -0.9942,-2.1898 -1.0377,-3.7329 -0.1553,-5.5012 0.3728,-0.7431 5.7306,-6.4267 11.9098,-12.6301 6.1791,-6.2035 11.1408,-11.3729 11.0258,-11.4878 -0.1139,-0.1139 -0.961,0.052 -1.8812,0.3676 -0.9191,0.3159 -3.4771,1.0559 -5.6835,1.6426 -4.7629,1.266 -10.2347,2.7449 -18.5788,5.0212 -7.4421,2.0309 -10.33,2.3696 -12.1553,1.4256 -1.4297,-0.7395 -3.1975,-2.8584 -3.664,-4.3921 -0.8161,-2.6854 1.3478,-6.7317 4.2492,-7.9439 0.727,-0.3055 4.2445,-1.3194 7.818,-2.2571 7.7507,-2.0346 14.6345,-4.0064 14.895,-4.2663 0.1036,-0.1036 -13.6766,-0.1347 -30.6217,-0.072 -20.8649,0.078 -31.3502,-0.052 -32.4837,-0.3366 -6.2827,-1.6917 -7.2251,-9.9022 -1.4478,-12.6177 1.8864,-0.887 1.9123,-0.887 55.1724,-0.887 52.1484,0 53.3223,0 55.0021,0.8316 1.119,0.5422 7.6626,6.7896 18.7962,17.946 9.3932,9.4129 17.2356,16.9575 17.4266,16.7664 0.1916,-0.1916 0.2952,-4.0395 0.2331,-8.5512 l -0.114,-8.2033 -2.8583,-0.2848 c -1.5721,-0.1553 -3.4725,-0.6343 -4.2228,-1.0651 -1.5001,-0.8606 -3.2643,-3.8971 -3.2643,-5.6189 0,-2.0894 1.7564,-4.7836 3.7842,-5.8063 1.818,-0.9165 2.2929,-0.9496 13.528,-0.9496 11.2356,0 11.7099,0.052 13.5279,0.9496 1.3759,0.6944 2.1397,1.4577 2.8335,2.8341 1.1957,2.37 1.1957,3.5765 0,5.9342 -1.2086,2.385 -2.9308,3.3658 -6.5359,3.722 l -2.8583,0.2848 -0.1139,8.2033 c -0.062,4.5117 0.052,8.3601 0.2382,8.5512 0.1916,0.1916 8.0339,-7.3535 17.4271,-16.7664 11.1336,-11.1564 17.6767,-17.4038 18.7957,-17.946 1.6804,-0.814 2.8543,-0.8316 55.0016,-0.8316 53.2606,0 53.2865,0 55.1729,0.887 5.7773,2.7155 4.8354,10.926 -1.4478,12.6177 -1.1335,0.3055 -11.6188,0.4142 -32.4832,0.3366 -16.9456,-0.062 -30.7252,-0.052 -30.6217,0.072 0.2589,0.2589 7.1438,2.2317 14.895,4.2663 3.5735,0.9377 7.091,1.9537 7.8175,2.2571 2.9014,1.2122 5.0658,5.2585 4.2492,7.9439 -0.466,1.5337 -2.2338,3.6526 -3.664,4.3921 -1.8248,0.944 -4.7127,0.6053 -12.1553,-1.4256 -8.5238,-2.3255 -13.6735,-3.7174 -18.4731,-4.9933 -2.2644,-0.6022 -4.8696,-1.3536 -5.7892,-1.6705 -0.9202,-0.3158 -1.7668,-0.4815 -1.8812,-0.3676 -0.114,0.1139 4.8467,5.2843 11.0264,11.4878 6.1791,6.2034 11.538,11.887 11.9092,12.6301 1.8543,3.7148 -0.7441,8.4212 -5.1036,9.2456 -3.1571,0.5965 -3.43,0.3676 -24.8847,-21.0338 -17.8145,-17.7678 -20.416,-20.2093 -21.1125,-19.8148 -0.4401,0.2486 -9.3916,9.0686 -19.9007,19.6025 l -19.1065,19.1525 v 3.4544 3.4544 h 6.6908 c 6.2925,0 6.7378,-0.052 7.4943,-0.8995 1.3774,-1.54 3.9023,-2.9075 5.8648,-3.1768 2.746,-0.378 6.1999,1.3805 7.8605,3.9991 3.4,5.3615 -0.6089,12.744 -6.9206,12.744 -2.2349,0 -5.2579,-1.2267 -6.4163,-2.6036 -0.5841,-0.6933 -1.0615,-1.1164 -1.0615,-0.9393 0,0.1761 0.3624,0.7141 0.8036,1.1936 1.7482,1.8942 5.2077,8.5517 5.8845,11.3221 0.2693,1.10333 0.6965,2.83233 0.9492,3.84263 0.2537,1.0102 0.3676,3.1478 0.2537,4.7499 -0.1812,2.6181 -0.4091,3.9158 -1.3774,7.9014 -0.3366,1.3826 -2.469,5.6613 -4.0483,8.1178 -0.6027,0.9378 -2.5306,3.0448 -4.2839,4.6827 l -3.1887,2.9774 2.5228,2.6512 c 2.5906,2.7217 4.6127,6.1667 5.509,9.3834 0.6592,2.3675 0.6525,8.4813 0,10.8835 -1.2582,4.5438 -5.509,10.3957 -8.9587,12.3349 -0.9093,0.5127 -1.6529,1.1827 -1.6529,1.4929 0,0.3107 0.4764,1.3204 1.061,2.2447 0.5831,0.9243 1.3438,2.7657 1.6891,4.0918 1.801,6.9144 -0.5431,13.79571 -6.2252,18.27224 l -2.4197,1.90608 v 2.76101 c 0,3.77592 -1.2236,6.14752 -3.8086,7.44828 -1.0449,0.5261 -2.3747,0.95641 -2.9557,0.95641 -0.5804,0 -1.9102,-0.42979 -2.9557,-0.95641 z m -4.2228,-56.02261 c 0,-6.2703 -0.145,-11.4003 -0.3314,-11.4003 -1.3494,0 -5.1005,3.6661 -6.264,6.1221 -2.1148,4.4667 -1.0139,10.8172 2.4239,13.9759 1.6062,1.4758 3.3497,2.703 3.8401,2.703 0.1812,0 0.3314,-5.1305 0.3314,-11.4007 z m 16.057,10.7038 c 0.5748,-0.3832 1.6845,-1.2863 2.4679,-2.0061 4.6397,-4.2632 4.6397,-13.1318 0,-17.3955 -1.6057,-1.4758 -3.3492,-2.7025 -3.8401,-2.7025 -0.1761,0 -0.3314,5.13 -0.3314,11.4003 0,6.2702 0.145,11.4007 0.3314,11.4007 0.1812,0 0.7979,-0.3158 1.3722,-0.6969 z m -16.057,-52.7439 v -18.39493 l -1.7704,0.9772 c -2.4804,1.3691 -6.2604,5.2227 -7.615,7.7646 -4.0799,7.65283 -2.9744,16.97973 2.7563,23.24993 1.9253,2.1071 5.4319,4.7676 6.3127,4.7899 0.1761,0 0.3159,-8.2696 0.3159,-18.3867 z m 16.6908,17.3096 c 2.5213,-1.4773 6.2294,-5.5769 7.5006,-8.2913 2.7698,-5.9156 2.6005,-12.9511 -0.4453,-18.67143 -1.3546,-2.5419 -5.1347,-6.3955 -7.6156,-7.7646 l -1.7699,-0.9772 v 18.39493 c 0,10.1171 0.1088,18.3944 0.2382,18.3944 0.1295,0 1.0745,-0.4867 2.0925,-1.0848 z"
             id="path201604-6-9" />
        </g>
        <path
           style="fill:#000000;stroke-width:0.422243;filter:url(#filter201584-9-5)"
           d="m -1530.4151,-1092.0952 c -2.5844,-1.3007 -3.7972,-3.6723 -3.8085,-7.4483 v -2.7609 l -2.4198,-1.9061 c -5.6815,-4.4766 -8.0262,-11.3579 -6.2252,-18.2723 0.3418,-1.3261 1.1055,-3.1675 1.6886,-4.0918 0.5846,-0.9248 1.0615,-1.9345 1.0615,-2.2447 0,-0.3107 -0.7436,-0.9823 -1.6528,-1.4929 -3.4503,-1.9392 -7.7005,-7.791 -8.9588,-12.3349 -0.6649,-2.4021 -0.6732,-8.516 0,-10.8834 0.8963,-3.2167 2.9189,-6.6617 5.5091,-9.3834 l 2.5222,-2.6511 -3.1882,-2.9775 c -1.7533,-1.6379 -3.6811,-3.7449 -4.2844,-4.6827 -1.5788,-2.4565 -3.7122,-6.7352 -4.0478,-8.1178 -0.9667,-3.9856 -1.193,-5.2833 -1.3779,-7.9014 -0.1139,-1.6021 0,-3.7397 0.2538,-4.7499 0.2537,-1.0103 0.6793,-2.7393 0.9491,-3.8427 0.6763,-2.7704 4.1369,-9.4279 5.884,-11.3221 0.4453,-0.4816 0.8041,-1.0165 0.8041,-1.1936 0,-0.1761 -0.4763,0.2434 -1.061,0.9393 -1.1588,1.3769 -4.1824,2.6036 -6.4168,2.6036 -6.3116,0 -10.3206,-7.3825 -6.9206,-12.744 1.6607,-2.6186 5.114,-4.3755 7.8605,-3.9991 1.962,0.2693 4.4869,1.6368 5.8643,3.1768 0.7565,0.8456 1.2018,0.8995 7.4954,0.8995 h 6.6902 v -3.4544 -3.4544 l -19.107,-19.1525 c -10.508,-10.5339 -19.4637,-19.3549 -19.9007,-19.6025 -0.696,-0.3935 -3.297,2.047 -21.112,19.8148 -21.4552,21.3999 -21.7281,21.6303 -24.8847,21.0338 -2.2178,-0.4195 -4.0789,-1.8274 -4.9488,-3.7444 -0.9942,-2.1898 -1.0377,-3.7329 -0.1553,-5.5012 0.3728,-0.7431 5.7306,-6.4267 11.9098,-12.6301 6.1791,-6.2035 11.1408,-11.3729 11.0258,-11.4878 -0.1139,-0.1139 -0.961,0.052 -1.8812,0.3676 -0.9191,0.3159 -3.4771,1.0559 -5.6835,1.6426 -4.7629,1.266 -10.2347,2.7449 -18.5788,5.0212 -7.4421,2.0309 -10.33,2.3696 -12.1553,1.4256 -1.4297,-0.7395 -3.1975,-2.8584 -3.664,-4.3921 -0.8161,-2.6854 1.3478,-6.7317 4.2492,-7.9439 0.727,-0.3055 4.2445,-1.3194 7.818,-2.2571 7.7507,-2.0346 14.6345,-4.0064 14.895,-4.2663 0.1036,-0.1036 -13.6766,-0.1347 -30.6217,-0.072 -20.8649,0.078 -31.3502,-0.052 -32.4837,-0.3366 -6.2827,-1.6917 -7.2251,-9.9022 -1.4478,-12.6177 1.8864,-0.887 1.9123,-0.887 55.1724,-0.887 52.1484,0 53.3223,0 55.0021,0.8316 1.119,0.5422 7.6626,6.7896 18.7962,17.946 9.3932,9.4129 17.2356,16.9575 17.4266,16.7664 0.1916,-0.1916 0.2952,-4.0395 0.2331,-8.5512 l -0.114,-8.2033 -2.8583,-0.2848 c -1.5721,-0.1553 -3.4725,-0.6343 -4.2228,-1.0651 -1.5001,-0.8606 -3.2643,-3.8971 -3.2643,-5.6189 0,-2.0894 1.7564,-4.7836 3.7842,-5.8063 1.818,-0.9165 2.2929,-0.9496 13.528,-0.9496 11.2356,0 11.7099,0.052 13.5279,0.9496 1.3759,0.6944 2.1397,1.4577 2.8335,2.8341 1.1957,2.37 1.1957,3.5765 0,5.9342 -1.2086,2.385 -2.9308,3.3658 -6.5359,3.722 l -2.8583,0.2848 -0.1139,8.2033 c -0.062,4.5117 0.052,8.3601 0.2382,8.5512 0.1916,0.1916 8.0339,-7.3535 17.4271,-16.7664 11.1336,-11.1564 17.6767,-17.4038 18.7957,-17.946 1.6804,-0.814 2.8543,-0.8316 55.0016,-0.8316 53.2606,0 53.2865,0 55.1729,0.887 5.7773,2.7155 4.8354,10.926 -1.4478,12.6177 -1.1335,0.3055 -11.6188,0.4142 -32.4832,0.3366 -16.9456,-0.062 -30.7252,-0.052 -30.6217,0.072 0.2589,0.2589 7.1438,2.2317 14.895,4.2663 3.5735,0.9377 7.091,1.9537 7.8175,2.2571 2.9014,1.2122 5.0658,5.2585 4.2492,7.9439 -0.466,1.5337 -2.2338,3.6526 -3.664,4.3921 -1.8248,0.944 -4.7127,0.6053 -12.1553,-1.4256 -8.5238,-2.3255 -13.6735,-3.7174 -18.4731,-4.9933 -2.2644,-0.6022 -4.8696,-1.3536 -5.7892,-1.6705 -0.9202,-0.3158 -1.7668,-0.4815 -1.8812,-0.3676 -0.114,0.1139 4.8467,5.2843 11.0264,11.4878 6.1791,6.2034 11.538,11.887 11.9092,12.6301 1.8543,3.7148 -0.7441,8.4212 -5.1036,9.2456 -3.1571,0.5965 -3.43,0.3676 -24.8847,-21.0338 -17.8145,-17.7678 -20.416,-20.2093 -21.1125,-19.8148 -0.4401,0.2486 -9.3916,9.0686 -19.9007,19.6025 l -19.1065,19.1525 v 3.4544 3.4544 h 6.6908 c 6.2925,0 6.7378,-0.052 7.4943,-0.8995 1.3774,-1.54 3.9023,-2.9075 5.8648,-3.1768 2.746,-0.378 6.1999,1.3805 7.8605,3.9991 3.4,5.3615 -0.6089,12.744 -6.9206,12.744 -2.2349,0 -5.2579,-1.2267 -6.4163,-2.6036 -0.5841,-0.6933 -1.0615,-1.1164 -1.0615,-0.9393 0,0.1761 0.3624,0.7141 0.8036,1.1936 1.7482,1.8942 5.2077,8.5517 5.8845,11.3221 0.2693,1.1034 0.6965,2.8324 0.9492,3.8427 0.2537,1.0102 0.3676,3.1478 0.2537,4.7499 -0.1812,2.6181 -0.4091,3.9158 -1.3774,7.9014 -0.3366,1.3826 -2.469,5.6613 -4.0483,8.1178 -0.6027,0.9378 -2.5306,3.0448 -4.2839,4.6827 l -3.1887,2.9775 2.5228,2.6511 c 2.5906,2.7217 4.6127,6.1667 5.509,9.3834 0.6592,2.3674 0.6525,8.4813 0,10.8834 -1.2582,4.5439 -5.509,10.3957 -8.9587,12.3349 -0.9093,0.5127 -1.6529,1.1827 -1.6529,1.4929 0,0.3107 0.4764,1.3204 1.061,2.2447 0.5831,0.9243 1.3438,2.7657 1.6891,4.0918 1.801,6.9144 -0.5431,13.7957 -6.2252,18.2723 l -2.4197,1.9061 v 2.7609 c 0,3.776 -1.2236,6.1476 -3.8086,7.4483 -1.0449,0.5261 -2.3747,0.9564 -2.9557,0.9564 -0.5804,0 -1.9102,-0.4298 -2.9557,-0.9564 z m -4.2228,-56.0226 c 0,-6.2702 -0.145,-11.4002 -0.3314,-11.4002 -1.3494,0 -5.1005,3.6661 -6.264,6.1221 -2.1148,4.4667 -1.0139,10.8172 2.4239,13.9759 1.6062,1.4757 3.3497,2.703 3.8401,2.703 0.1812,0 0.3314,-5.1306 0.3314,-11.4008 z m 16.057,10.7038 c 0.5748,-0.3832 1.6845,-1.2863 2.4679,-2.006 4.6397,-4.2632 4.6397,-13.1318 0,-17.3955 -1.6057,-1.4758 -3.3492,-2.7025 -3.8401,-2.7025 -0.1761,0 -0.3314,5.13 -0.3314,11.4002 0,6.2702 0.145,11.4008 0.3314,11.4008 0.1812,0 0.7979,-0.3159 1.3722,-0.697 z m -16.057,-52.7438 v -18.395 l -1.7704,0.9772 c -2.4804,1.3691 -6.2604,5.2227 -7.615,7.7646 -4.0799,7.6529 -2.9744,16.9798 2.7563,23.25 1.9253,2.1071 5.4319,4.7676 6.3127,4.7899 0.1761,0 0.3159,-8.2696 0.3159,-18.3867 z m 16.6908,17.3096 c 2.5213,-1.4773 6.2294,-5.5769 7.5006,-8.2913 2.7698,-5.9156 2.6005,-12.9511 -0.4453,-18.6715 -1.3546,-2.5419 -5.1347,-6.3955 -7.6156,-7.7646 l -1.7699,-0.9772 v 18.395 c 0,10.1171 0.1088,18.3944 0.2382,18.3944 0.1295,0 1.0745,-0.4867 2.0925,-1.0848 z"
           id="path201868-1-1" />
      </g>
      <g
         id="g213694-8-9-5"
         transform="translate(2831.5157,2237.5878)">
        <g
           id="g213676-04-3-1">
          <text
             xml:space="preserve"
             style="font-style:normal;font-variant:normal;font-weight:normal;font-stretch:normal;font-size:31.6863px;line-height:1.25;font-family:'DejaVu Math TeX Gyre';-inkscape-font-specification:'DejaVu Math TeX Gyre, Normal';font-variant-ligatures:normal;font-variant-caps:normal;font-variant-numeric:normal;font-variant-east-asian:normal;fill:#000000;fill-opacity:1;stroke:none;stroke-width:0.475294"
             x="-4489.7861"
             y="-1874.4403"
             id="text210527-2-09-6-7"><tspan
               sodipodi:role="line"
               id="tspan210525-9-19-0-4"
               style="font-style:normal;font-variant:normal;font-weight:normal;font-stretch:normal;font-size:31.6863px;font-family:'DejaVu Math TeX Gyre';-inkscape-font-specification:'DejaVu Math TeX Gyre, Normal';font-variant-ligatures:normal;font-variant-caps:normal;font-variant-numeric:normal;font-variant-east-asian:normal;fill:#000000;fill-opacity:1;stroke-width:0.475294"
               x="-4489.7861"
               y="-1874.4403">THOTH NETWORK </tspan></text>
          <text
             xml:space="preserve"
             style="font-style:normal;font-variant:normal;font-weight:normal;font-stretch:normal;font-size:31.6863px;line-height:1.25;font-family:'DejaVu Math TeX Gyre';-inkscape-font-specification:'DejaVu Math TeX Gyre, Normal';font-variant-ligatures:normal;font-variant-caps:normal;font-variant-numeric:normal;font-variant-east-asian:normal;fill:#ffffff;fill-opacity:1;stroke:none;stroke-width:0.475294;filter:url(#filter212110-8-4-4)"
             x="-4489.7861"
             y="-1874.4403"
             id="text210527-2-0-6-5-3"><tspan
               sodipodi:role="line"
               id="tspan210525-9-4-2-0-1"
               style="font-style:normal;font-variant:normal;font-weight:normal;font-stretch:normal;font-size:31.6863px;font-family:'DejaVu Math TeX Gyre';-inkscape-font-specification:'DejaVu Math TeX Gyre, Normal';font-variant-ligatures:normal;font-variant-caps:normal;font-variant-numeric:normal;font-variant-east-asian:normal;fill:#ffffff;fill-opacity:1;stroke-width:0.475294"
               x="-4489.7861"
               y="-1874.4403">THOTH NETWORK </tspan></text>
        </g>
        <text
           xml:space="preserve"
           style="font-style:normal;font-variant:normal;font-weight:normal;font-stretch:normal;font-size:31.6863px;line-height:1.25;font-family:'DejaVu Math TeX Gyre';-inkscape-font-specification:'DejaVu Math TeX Gyre, Normal';font-variant-ligatures:normal;font-variant-caps:normal;font-variant-numeric:normal;font-variant-east-asian:normal;fill:#000000;fill-opacity:1;stroke:none;stroke-width:0.475294"
           x="-4489.7861"
           y="-1874.4403"
           id="text210527-2-6-5-2-4"><tspan
             sodipodi:role="line"
             id="tspan210525-9-1-4-9-6"
             style="font-style:normal;font-variant:normal;font-weight:normal;font-stretch:normal;font-size:31.6863px;font-family:'DejaVu Math TeX Gyre';-inkscape-font-specification:'DejaVu Math TeX Gyre, Normal';font-variant-ligatures:normal;font-variant-caps:normal;font-variant-numeric:normal;font-variant-east-asian:normal;fill:#000000;fill-opacity:1;stroke-width:0.475294"
             x="-4489.7861"
             y="-1874.4403">THOTH NETWORK </tspan></text>
      </g>
    </g>
    <rect
       style="fill:none;fill-opacity:0.741176;stroke:#000000;stroke-width:1.42588;stroke-miterlimit:4;stroke-dasharray:none;stroke-opacity:1"
       id="rect3940"
       width="752.78973"
       height="465.24963"
       x="792.48322"
       y="-68.303658"
       rx="16.517429"
       ry="16.768402" />
    <rect
       style="fill:none;fill-opacity:0.741176;stroke:#000000;stroke-width:1.11196;stroke-miterlimit:4;stroke-dasharray:none;stroke-opacity:1"
       id="rect9462"
       width="259.80203"
       height="37.114574"
       x="1038.9775"
       y="108.72217"
       rx="12.880896"
       ry="9.4085722" />
    <text
       xml:space="preserve"
       style="font-style:normal;font-variant:normal;font-weight:normal;font-stretch:normal;font-size:19.0117px;line-height:1.25;font-family:'DejaVu Math TeX Gyre';-inkscape-font-specification:'DejaVu Math TeX Gyre, Normal';font-variant-ligatures:normal;font-variant-caps:normal;font-variant-numeric:normal;font-variant-east-asian:normal;fill:#000000;fill-opacity:1;stroke:none;stroke-width:0.475294"
       x="1129.9902"
       y="76.162498"
       id="text10426"><tspan
         sodipodi:role="line"
         id="tspan5441"
         x="1129.9902"
         y="76.162498">Address </tspan></text>
    <path
       style="fill:#000000;stroke-width:0.0896248"
       d="m 840.91062,-4.2240526 c -0.5486,-0.27612 -0.806,-0.7795007 -0.8084,-1.5810407 v -0.585969 l -0.5136,-0.40462 c -1.206,-0.95016 -1.7036,-2.4108 -1.3214,-3.8785107 0.073,-0.28145 0.2347,-0.672259 0.3585,-0.868489 0.124,-0.19622 0.2253,-0.41062 0.2253,-0.47648 0,-0.0659 -0.1579,-0.20842 -0.3508,-0.31686 -0.7324,-0.4116 -1.6345,-1.65365 -1.9016,-2.61812 -0.1412,-0.509903 -0.1429,-1.807652 0,-2.310172 0.1902,-0.68278 0.6195,-1.41396 1.1693,-1.99172 l 0.5354,-0.56274 -0.6767,-0.632 c -0.3722,-0.347601 -0.7814,-0.794851 -0.9094,-0.993891 -0.3352,-0.521449 -0.788,-1.429593 -0.8592,-1.723034 -0.2052,-0.845983 -0.2533,-1.121491 -0.2925,-1.677151 -0.024,-0.340137 2e-4,-0.793857 0.054,-1.008281 0.054,-0.214422 0.1442,-0.581439 0.2015,-0.815586 0.1435,-0.588054 0.878,-2.001195 1.2489,-2.403242 0.094,-0.101765 0.1707,-0.215769 0.1707,-0.253339 0,-0.03753 -0.1013,0.05213 -0.2253,0.199421 -0.2459,0.292227 -0.8877,0.552638 -1.362,0.552638 -1.3397,0 -2.1906,-1.567042 -1.4689,-2.70506 0.3525,-0.555794 1.0855,-0.928724 1.6684,-0.848826 0.4165,0.05705 0.9524,0.347359 1.2448,0.674255 0.1606,0.179531 0.2551,0.190883 1.5909,0.190883 h 1.4201 v -0.733208 -0.733189 l -4.0556,-4.065314 c -2.2305,-2.235921 -4.1314,-4.108277 -4.2241,-4.1608 -0.1478,-0.08369 -0.6999,0.434512 -4.4812,4.205953 -4.5541,4.542195 -4.612,4.591129 -5.282,4.464487 -0.4708,-0.08899 -0.8658,-0.387792 -1.0505,-0.794691 -0.211,-0.464824 -0.2202,-0.792328 -0.033,-1.167723 0.079,-0.157759 1.2163,-1.36415 2.5279,-2.680872 1.3116,-1.316723 2.3648,-2.413971 2.3404,-2.438319 -0.024,-0.02436 -0.204,0.01078 -0.3993,0.078 -0.1952,0.0672 -0.7381,0.224082 -1.2064,0.348572 -1.011,0.26877 -2.1724,0.582691 -3.9435,1.065886 -1.5797,0.43099 -2.1927,0.502869 -2.5801,0.30253 -0.3035,-0.15695 -0.6787,-0.606718 -0.7777,-0.93226 -0.1733,-0.570029 0.2861,-1.428827 0.9019,-1.686119 0.1543,-0.06445 0.9009,-0.280048 1.6594,-0.479138 1.6452,-0.431822 3.1063,-0.850339 3.1616,-0.905577 0.022,-0.0219 -2.9029,-0.02872 -6.4997,-0.01509 -4.4287,0.01671 -6.6543,-0.0066 -6.8949,-0.07099 -1.3336,-0.359101 -1.5336,-2.101774 -0.3073,-2.678173 0.4004,-0.188238 0.4059,-0.188323 11.7108,-0.188323 11.0689,0 11.3181,0.0038 11.6747,0.176532 0.2375,0.115076 1.6264,1.441186 3.9896,3.809187 1.9938,1.997965 3.6584,3.599447 3.699,3.558845 0.041,-0.04056 0.063,-0.857356 0.049,-1.815026 l -0.024,-1.741223 -0.6067,-0.06 c -0.3337,-0.03298 -0.737,-0.13473 -0.8963,-0.22611 -0.3184,-0.1827 -0.6929,-0.827261 -0.6929,-1.192713 0,-0.443389 0.3728,-1.015275 0.8033,-1.232344 0.3858,-0.194579 0.4866,-0.201659 2.8714,-0.201659 2.3848,0 2.4855,0.0075 2.8714,0.201659 0.2921,0.147304 0.4542,0.309411 0.6015,0.601552 0.2537,0.502964 0.2537,0.759138 0,1.259525 -0.2566,0.506289 -0.6221,0.714429 -1.3874,0.79009 l -0.6067,0.06 -0.024,1.741223 c -0.013,0.95767 0.01,1.774433 0.05,1.815026 0.041,0.04056 1.7052,-1.56088 3.699,-3.558845 2.3632,-2.368001 3.7521,-3.694118 3.9896,-3.809187 0.3567,-0.172759 0.6058,-0.176532 11.6746,-0.176532 11.305,0 11.3105,8.5e-5 11.7109,0.188323 1.2263,0.576399 1.0263,2.319072 -0.3073,2.678173 -0.2406,0.06472 -2.4662,0.08766 -6.8949,0.07099 -3.5968,-0.01347 -6.5217,-0.0066 -6.4997,0.01509 0.055,0.05526 1.5164,0.473755 3.1616,0.905577 0.7585,0.19909 1.5052,0.4147 1.6594,0.479138 0.6158,0.257292 1.0752,1.11609 0.9019,1.686119 -0.099,0.325542 -0.4742,0.775308 -0.7777,0.93226 -0.3874,0.200339 -1.0004,0.12846 -2.5801,-0.30253 -1.8093,-0.49361 -2.9023,-0.789079 -3.9211,-1.059924 -0.4806,-0.127777 -1.0336,-0.287309 -1.2288,-0.354534 -0.1953,-0.0672 -0.375,-0.102286 -0.3993,-0.078 -0.024,0.02436 1.0288,1.121596 2.3404,2.438319 1.3116,1.316722 2.4491,2.523115 2.5279,2.680872 0.3936,0.788491 -0.1579,1.787492 -1.0833,1.962414 -0.6701,0.126646 -0.728,0.07771 -5.282,-4.464487 -3.7813,-3.771441 -4.3335,-4.28967 -4.4813,-4.205953 -0.093,0.05251 -1.9935,1.924879 -4.2241,4.1608 l -4.0555,4.065314 v 0.733189 0.733208 h 1.4201 c 1.3357,0 1.4302,-0.01132 1.5908,-0.190883 0.2924,-0.326896 0.8283,-0.617171 1.2448,-0.674255 0.5829,-0.0799 1.316,0.293032 1.6685,0.848826 0.7217,1.138018 -0.1292,2.70506 -1.469,2.70506 -0.4743,0 -1.116,-0.260411 -1.3619,-0.552638 -0.124,-0.14725 -0.2253,-0.237 -0.2253,-0.199421 0,0.03753 0.077,0.151579 0.1706,0.253339 0.371,0.402047 1.1054,1.815188 1.249,2.403242 0.057,0.234147 0.1478,0.601164 0.2015,0.815586 0.054,0.214424 0.078,0.668144 0.054,1.008281 -0.039,0.55566 -0.087,0.831168 -0.2924,1.677151 -0.071,0.293441 -0.5241,1.201585 -0.8593,1.723034 -0.1279,0.19904 -0.5371,0.64629 -0.9093,0.993891 l -0.6768,0.632 0.5355,0.56274 c 0.5498,0.57776 0.979,1.30894 1.1693,1.99172 0.1399,0.50252 0.1385,1.800269 0,2.310172 -0.2671,0.96447 -1.1693,2.20652 -1.9016,2.61812 -0.193,0.10843 -0.3508,0.25103 -0.3508,0.31686 0,0.0659 0.1013,0.28026 0.2252,0.47648 0.1238,0.19623 0.2852,0.587039 0.3585,0.868489 0.3823,1.4677107 -0.1153,2.9283507 -1.3213,3.8785107 l -0.5136,0.40462 v 0.585969 c 0,0.80154 -0.2598,1.3049207 -0.8084,1.5810407 -0.2218,0.11165 -0.5041,0.203 -0.6274,0.203 -0.1232,0 -0.4055,-0.0914 -0.6274,-0.203 z m -0.8963,-11.8913224 c 0,-1.330929 -0.031,-2.419869 -0.07,-2.419869 -0.2865,0 -1.0827,0.77821 -1.3296,1.29956 -0.4489,0.948089 -0.2152,2.296002 0.5145,2.966492 0.3409,0.31324 0.711,0.5737 0.8151,0.5737 0.038,0 0.07,-1.08895 0.07,-2.419883 z m 3.4082,2.271893 c 0.122,-0.0814 0.3576,-0.27296 0.5239,-0.42571 0.9848,-0.90494 0.9848,-2.787422 0,-3.692352 -0.3409,-0.31324 -0.711,-0.5737 -0.8151,-0.5737 -0.038,0 -0.07,1.08894 -0.07,2.419869 0,1.330933 0.031,2.419883 0.07,2.419883 0.038,0 0.1693,-0.0666 0.2912,-0.14799 z m -3.4082,-11.195311 v -3.90442 l -0.3758,0.207393 c -0.5265,0.290606 -1.3288,1.108563 -1.6164,1.648102 -0.866,1.624407 -0.6313,3.604079 0.5851,4.935044 0.4087,0.447179 1.153,1.011869 1.3399,1.016599 0.037,9.4e-4 0.067,-1.75529 0.067,-3.902718 z m 3.5428,3.674108 c 0.5351,-0.31359 1.3222,-1.183749 1.592,-1.759907 0.5879,-1.255546 0.552,-2.748982 -0.095,-3.963126 -0.2876,-0.539539 -1.0899,-1.357496 -1.6165,-1.648102 l -0.3757,-0.207393 v 3.90442 c 0,2.147428 0.023,3.904418 0.051,3.904418 0.028,0 0.2281,-0.10363 0.4442,-0.23031 z"
       id="path11213" />
    <path
       style="fill:#000000;stroke-width:0.0591099"
       d="m 1508.7055,377.36982 c -2.2334,-0.22784 -3.861,-0.67957 -5.6406,-1.56557 -3.678,-1.83105 -6.4332,-5.03719 -7.6799,-8.9368 -0.4934,-1.54341 -0.6848,-2.82737 -0.6848,-4.59431 0,-1.82482 0.1997,-3.113 0.7329,-4.7288 2.5989,-7.87591 11.0762,-12.20569 18.9619,-9.68472 4.9688,1.58851 8.7706,5.6256 10.0666,10.68958 0.3188,1.24564 0.4301,2.18356 0.4351,3.66483 0.01,1.51743 -0.089,2.35114 -0.4113,3.66482 -0.2734,1.11286 -0.6204,2.05369 -1.1539,3.12843 -0.7664,1.54382 -1.6683,2.78972 -2.9025,4.0096 -1.2605,1.24587 -2.3666,2.03061 -3.9801,2.82383 -2.1069,1.03578 -3.9853,1.48868 -6.3543,1.53211 -0.634,0.0116 -1.2591,0.0103 -1.3891,-0.003 z m 3.1624,-2.23685 c 2.7513,-0.46979 5.1875,-1.7234 7.1234,-3.66536 1.9656,-1.97185 3.2089,-4.39976 3.6765,-7.17952 0.1489,-0.88484 0.1489,-3.14505 0,-4.0299 -0.8689,-5.16547 -4.5833,-9.2676 -9.5781,-10.57805 -1.2142,-0.31855 -1.7673,-0.38183 -3.3202,-0.37986 -1.5249,0.002 -2.1502,0.0777 -3.3825,0.4097 -5.1645,1.39154 -8.9853,5.89636 -9.5366,11.24373 -0.088,0.85632 -0.042,2.60506 0.09,3.38828 0.461,2.73699 1.7154,5.17493 3.6654,7.12377 2.151,2.1496 4.7968,3.40595 7.9518,3.77584 0.4943,0.058 2.7724,-0.0168 3.3102,-0.10863 z m -3.0039,-5.87904 c -0.5777,-0.19954 -0.9498,-0.69806 -1.0014,-1.34183 -0.024,-0.30257 -0.01,-0.41788 0.1173,-0.68151 0.5469,-1.18453 2.018,-1.25275 2.7145,-0.12588 0.1952,0.31584 0.2184,0.91214 0.05,1.30196 -0.1736,0.40384 -0.5517,0.74843 -0.9511,0.86705 -0.3957,0.11752 -0.5413,0.11442 -0.9299,-0.0198 z m 0.1371,-4.37466 c -0.5793,-0.10122 -0.7362,-0.37938 -0.7366,-1.30571 -2e-4,-0.7409 0.1052,-1.28487 0.3475,-1.79279 0.2669,-0.55924 0.5881,-0.92295 1.3618,-1.54244 1.0885,-0.8715 1.328,-1.2198 1.3308,-1.93502 0,-0.4103 -0.015,-0.47679 -0.1779,-0.70859 -0.1202,-0.17118 -0.2947,-0.31469 -0.5276,-0.43387 -0.328,-0.1677 -0.388,-0.17806 -1.0323,-0.17806 -0.9879,0 -1.3011,0.1597 -1.8682,0.9525 -0.3159,0.44163 -0.5751,0.58494 -0.9623,0.53186 -0.9091,-0.12458 -1.2814,-0.97035 -0.8413,-1.91081 0.3518,-0.75184 1.2544,-1.42866 2.2785,-1.70864 0.4615,-0.12616 1.8977,-0.17675 2.4357,-0.0858 1.9611,0.33153 3.2126,1.56329 3.2175,3.16663 0.01,1.28743 -0.6286,2.36247 -2.1311,3.62175 -0.6544,0.54842 -0.9656,0.93405 -1.0763,1.33388 -0.038,0.13533 -0.086,0.52535 -0.1078,0.86672 -0.022,0.34135 -0.072,0.6804 -0.1119,0.75345 -0.1556,0.285 -0.8491,0.47093 -1.3985,0.37492 z"
       id="path11558" />
    <rect
       style="fill:none;fill-opacity:0.741176;stroke:#000000;stroke-width:1.11196;stroke-miterlimit:4;stroke-dasharray:none;stroke-opacity:1"
       id="rect5271"
       width="259.80203"
       height="37.114574"
       x="1038.9775"
       y="166.93053"
       rx="12.880896"
       ry="9.4085722" />
    <text
       xml:space="preserve"
       style="font-style:normal;font-variant:normal;font-weight:normal;font-stretch:normal;font-size:19.0117px;line-height:1.25;font-family:'DejaVu Math TeX Gyre';-inkscape-font-specification:'DejaVu Math TeX Gyre, Normal';font-variant-ligatures:normal;font-variant-caps:normal;font-variant-numeric:normal;font-variant-east-asian:normal;fill:#000000;fill-opacity:1;stroke:none;stroke-width:0.475294"
       x="1092.6417"
       y="134.37082"
       id="text5275"><tspan
         sodipodi:role="line"
         id="tspan5381"
         x="1092.6417"
         y="134.37082">Tribute Amount</tspan></text>
    <rect
       style="fill:none;fill-opacity:0.741176;stroke:#000000;stroke-width:1.11196;stroke-miterlimit:4;stroke-dasharray:none;stroke-opacity:1"
       id="rect5277"
       width="259.80203"
       height="37.114574"
       x="1038.9775"
       y="225.13892"
       rx="12.880896"
       ry="9.4085722" />
    <text
       xml:space="preserve"
       style="font-style:normal;font-variant:normal;font-weight:normal;font-stretch:normal;font-size:19.0117px;line-height:1.25;font-family:'DejaVu Math TeX Gyre';-inkscape-font-specification:'DejaVu Math TeX Gyre, Normal';font-variant-ligatures:normal;font-variant-caps:normal;font-variant-numeric:normal;font-variant-east-asian:normal;fill:#000000;fill-opacity:1;stroke:none;stroke-width:0.475294"
       x="1126.0358"
       y="250.78757"
       id="text5281"><tspan
         sodipodi:role="line"
         id="tspan5421"
         x="1126.0358"
         y="250.78757">Deadline</tspan></text>
    <rect
       style="fill:none;fill-opacity:0.741176;stroke:#000000;stroke-width:1.42588;stroke-miterlimit:4;stroke-dasharray:none;stroke-opacity:1"
       id="rect3940-0"
       width="752.78973"
       height="465.24963"
       x="1861.1746"
       y="-68.726425"
       rx="16.517429"
       ry="16.768402" />
    <path
       style="fill:#000000;stroke-width:0.0896248"
       d="m 1909.6019,-4.6468181 c -0.5486,-0.27612 -0.806,-0.7795007 -0.8084,-1.5810407 v -0.585969 l -0.5136,-0.40462 c -1.206,-0.95016 -1.7036,-2.4108 -1.3214,-3.8785102 0.073,-0.28145 0.2347,-0.672259 0.3585,-0.868489 0.124,-0.19622 0.2253,-0.41062 0.2253,-0.47648 0,-0.0659 -0.1579,-0.20842 -0.3508,-0.31686 -0.7324,-0.4116 -1.6345,-1.65365 -1.9016,-2.61812 -0.1412,-0.509903 -0.1429,-1.807652 0,-2.310172 0.1902,-0.68278 0.6195,-1.41396 1.1693,-1.99172 l 0.5354,-0.56274 -0.6767,-0.632 c -0.3722,-0.347601 -0.7814,-0.794851 -0.9094,-0.993891 -0.3352,-0.521449 -0.788,-1.429593 -0.8592,-1.723034 -0.2052,-0.845983 -0.2533,-1.121491 -0.2925,-1.677151 -0.024,-0.340137 2e-4,-0.793857 0.054,-1.008281 0.054,-0.214422 0.1442,-0.581439 0.2015,-0.815586 0.1435,-0.588054 0.878,-2.001195 1.2489,-2.403242 0.094,-0.101765 0.1707,-0.215769 0.1707,-0.253339 0,-0.03753 -0.1013,0.05213 -0.2253,0.199421 -0.2459,0.292227 -0.8877,0.552638 -1.362,0.552638 -1.3397,0 -2.1906,-1.567042 -1.4689,-2.70506 0.3525,-0.555794 1.0855,-0.928724 1.6684,-0.848826 0.4165,0.05705 0.9524,0.347359 1.2448,0.674255 0.1606,0.179531 0.2551,0.190883 1.5909,0.190883 h 1.4201 v -0.733208 -0.733189 l -4.0556,-4.065314 c -2.2305,-2.235921 -4.1314,-4.108277 -4.2241,-4.1608 -0.1478,-0.08369 -0.6999,0.434512 -4.4812,4.205953 -4.5541,4.542195 -4.612,4.591129 -5.282,4.464487 -0.4708,-0.08899 -0.8658,-0.387792 -1.0505,-0.794691 -0.211,-0.464824 -0.2202,-0.792328 -0.033,-1.167723 0.079,-0.157759 1.2163,-1.36415 2.5279,-2.680872 1.3116,-1.316723 2.3648,-2.413971 2.3404,-2.438319 -0.024,-0.02436 -0.204,0.01078 -0.3993,0.078 -0.1952,0.0672 -0.7381,0.224082 -1.2064,0.348572 -1.011,0.26877 -2.1724,0.582691 -3.9435,1.065886 -1.5797,0.43099 -2.1927,0.502869 -2.5801,0.30253 -0.3035,-0.15695 -0.6787,-0.606718 -0.7777,-0.93226 -0.1733,-0.570029 0.2861,-1.428827 0.9019,-1.686119 0.1543,-0.06445 0.9009,-0.280048 1.6594,-0.479138 1.6452,-0.431822 3.1063,-0.850339 3.1616,-0.905577 0.022,-0.0219 -2.9029,-0.02872 -6.4997,-0.01509 -4.4287,0.01671 -6.6543,-0.0066 -6.8949,-0.07099 -1.3336,-0.359101 -1.5336,-2.101774 -0.3073,-2.678173 0.4004,-0.188238 0.4059,-0.188323 11.7108,-0.188323 11.0689,0 11.3181,0.0038 11.6747,0.176532 0.2375,0.115076 1.6264,1.441186 3.9896,3.809187 1.9938,1.997965 3.6584,3.599447 3.699,3.558845 0.041,-0.04056 0.063,-0.857356 0.049,-1.815026 l -0.024,-1.741223 -0.6067,-0.06 c -0.3337,-0.03298 -0.737,-0.13473 -0.8963,-0.22611 -0.3184,-0.1827 -0.6929,-0.827261 -0.6929,-1.192713 0,-0.443389 0.3728,-1.015275 0.8033,-1.232344 0.3858,-0.194579 0.4866,-0.201659 2.8714,-0.201659 2.3848,0 2.4855,0.0075 2.8714,0.201659 0.2921,0.147304 0.4542,0.309411 0.6015,0.601552 0.2537,0.502964 0.2537,0.759138 0,1.259525 -0.2566,0.506289 -0.6221,0.714429 -1.3874,0.79009 l -0.6067,0.06 -0.024,1.741223 c -0.013,0.95767 0.01,1.774433 0.05,1.815026 0.041,0.04056 1.7052,-1.56088 3.699,-3.558845 2.3632,-2.368001 3.7521,-3.694118 3.9896,-3.809187 0.3567,-0.172759 0.6058,-0.176532 11.6746,-0.176532 11.305,0 11.3105,8.5e-5 11.7109,0.188323 1.2263,0.576399 1.0263,2.319072 -0.3073,2.678173 -0.2406,0.06472 -2.4662,0.08766 -6.8949,0.07099 -3.5968,-0.01347 -6.5217,-0.0066 -6.4997,0.01509 0.055,0.05526 1.5164,0.473755 3.1616,0.905577 0.7585,0.19909 1.5052,0.4147 1.6594,0.479138 0.6158,0.257292 1.0752,1.11609 0.9019,1.686119 -0.099,0.325542 -0.4742,0.775308 -0.7777,0.93226 -0.3874,0.200339 -1.0004,0.12846 -2.5801,-0.30253 -1.8093,-0.49361 -2.9023,-0.789079 -3.9211,-1.059924 -0.4806,-0.127777 -1.0336,-0.287309 -1.2288,-0.354534 -0.1953,-0.0672 -0.375,-0.102286 -0.3993,-0.078 -0.024,0.02436 1.0288,1.121596 2.3404,2.438319 1.3116,1.316722 2.4491,2.523115 2.5279,2.680872 0.3936,0.788491 -0.1579,1.787492 -1.0833,1.962414 -0.6701,0.126646 -0.728,0.07771 -5.282,-4.464487 -3.7813,-3.771441 -4.3335,-4.28967 -4.4813,-4.205953 -0.093,0.05251 -1.9935,1.924879 -4.2241,4.1608 l -4.0555,4.065314 v 0.733189 0.733208 h 1.4201 c 1.3357,0 1.4302,-0.01132 1.5908,-0.190883 0.2924,-0.326896 0.8283,-0.617171 1.2448,-0.674255 0.5829,-0.0799 1.316,0.293032 1.6685,0.848826 0.7217,1.138018 -0.1292,2.70506 -1.469,2.70506 -0.4743,0 -1.116,-0.260411 -1.3619,-0.552638 -0.124,-0.14725 -0.2253,-0.237 -0.2253,-0.199421 0,0.03753 0.077,0.151579 0.1706,0.253339 0.371,0.402047 1.1054,1.815188 1.249,2.403242 0.057,0.234147 0.1478,0.601164 0.2015,0.815586 0.054,0.214424 0.078,0.668144 0.054,1.008281 -0.039,0.55566 -0.087,0.831168 -0.2924,1.677151 -0.071,0.293441 -0.5241,1.201585 -0.8593,1.723034 -0.1279,0.19904 -0.5371,0.64629 -0.9093,0.993891 l -0.6768,0.632 0.5355,0.56274 c 0.5498,0.57776 0.979,1.30894 1.1693,1.99172 0.1399,0.50252 0.1385,1.800269 0,2.310172 -0.2671,0.96447 -1.1693,2.20652 -1.9016,2.61812 -0.193,0.10843 -0.3508,0.25103 -0.3508,0.31686 0,0.0659 0.1013,0.28026 0.2252,0.47648 0.1238,0.19623 0.2852,0.587039 0.3585,0.868489 0.3823,1.4677102 -0.1153,2.9283502 -1.3213,3.8785102 l -0.5136,0.40462 v 0.585969 c 0,0.80154 -0.2598,1.3049207 -0.8084,1.5810407 -0.2218,0.11165 -0.5041,0.203 -0.6274,0.203 -0.1232,0 -0.4055,-0.0914 -0.6274,-0.203 z m -0.8963,-11.8913219 c 0,-1.330929 -0.031,-2.419869 -0.07,-2.419869 -0.2865,0 -1.0827,0.77821 -1.3296,1.29956 -0.4489,0.948089 -0.2152,2.296002 0.5145,2.966492 0.3409,0.31324 0.711,0.5737 0.8151,0.5737 0.038,0 0.07,-1.08895 0.07,-2.419883 z m 3.4082,2.271893 c 0.122,-0.0814 0.3576,-0.27296 0.5239,-0.42571 0.9848,-0.90494 0.9848,-2.787422 0,-3.692352 -0.3409,-0.31324 -0.711,-0.5737 -0.8151,-0.5737 -0.038,0 -0.07,1.08894 -0.07,2.419869 0,1.330933 0.031,2.419883 0.07,2.419883 0.038,0 0.1693,-0.0666 0.2912,-0.14799 z m -3.4082,-11.195311 v -3.90442 l -0.3758,0.207393 c -0.5265,0.290606 -1.3288,1.108563 -1.6164,1.648102 -0.866,1.624407 -0.6313,3.604079 0.5851,4.935044 0.4087,0.447179 1.153,1.011869 1.3399,1.016599 0.037,9.4e-4 0.067,-1.75529 0.067,-3.902718 z m 3.5428,3.674108 c 0.5351,-0.31359 1.3222,-1.183749 1.592,-1.759907 0.5879,-1.255546 0.552,-2.748982 -0.095,-3.963126 -0.2876,-0.539539 -1.0899,-1.357496 -1.6165,-1.648102 l -0.3757,-0.207393 v 3.90442 c 0,2.147428 0.023,3.904418 0.051,3.904418 0.028,0 0.2281,-0.10363 0.4442,-0.23031 z"
       id="path11213-4" />
    <path
       style="fill:#000000;stroke-width:0.0591099"
       d="m 2577.3968,376.94705 c -2.2334,-0.22784 -3.861,-0.67957 -5.6406,-1.56557 -3.678,-1.83105 -6.4332,-5.03719 -7.6799,-8.9368 -0.4934,-1.54341 -0.6848,-2.82737 -0.6848,-4.59431 0,-1.82482 0.1997,-3.113 0.7329,-4.7288 2.5989,-7.87591 11.0762,-12.20569 18.9619,-9.68472 4.9688,1.58851 8.7706,5.6256 10.0666,10.68958 0.3188,1.24564 0.4301,2.18356 0.4351,3.66483 0.01,1.51743 -0.089,2.35114 -0.4113,3.66482 -0.2734,1.11286 -0.6204,2.05369 -1.1539,3.12843 -0.7664,1.54382 -1.6683,2.78972 -2.9025,4.0096 -1.2605,1.24587 -2.3666,2.03061 -3.9801,2.82383 -2.1069,1.03578 -3.9853,1.48868 -6.3543,1.53211 -0.634,0.0116 -1.2591,0.0103 -1.3891,-0.003 z m 3.1624,-2.23685 c 2.7513,-0.46979 5.1875,-1.7234 7.1234,-3.66536 1.9656,-1.97185 3.2089,-4.39976 3.6765,-7.17952 0.1489,-0.88484 0.1489,-3.14505 0,-4.0299 -0.8689,-5.16547 -4.5833,-9.2676 -9.5781,-10.57805 -1.2142,-0.31855 -1.7673,-0.38183 -3.3202,-0.37986 -1.5249,0.002 -2.1502,0.0777 -3.3825,0.4097 -5.1645,1.39154 -8.9853,5.89636 -9.5366,11.24373 -0.088,0.85632 -0.042,2.60506 0.09,3.38828 0.461,2.73699 1.7154,5.17493 3.6654,7.12377 2.151,2.1496 4.7968,3.40595 7.9518,3.77584 0.4943,0.058 2.7724,-0.0168 3.3102,-0.10863 z m -3.0039,-5.87904 c -0.5777,-0.19954 -0.9498,-0.69806 -1.0014,-1.34183 -0.024,-0.30257 -0.01,-0.41788 0.1173,-0.68151 0.5469,-1.18453 2.018,-1.25275 2.7145,-0.12588 0.1952,0.31584 0.2184,0.91214 0.05,1.30196 -0.1736,0.40384 -0.5517,0.74843 -0.9511,0.86705 -0.3957,0.11752 -0.5413,0.11442 -0.9299,-0.0198 z m 0.1371,-4.37466 c -0.5793,-0.10122 -0.7362,-0.37938 -0.7366,-1.30571 -2e-4,-0.7409 0.1052,-1.28487 0.3475,-1.79279 0.2669,-0.55924 0.5881,-0.92295 1.3618,-1.54244 1.0885,-0.8715 1.328,-1.2198 1.3308,-1.93502 0,-0.4103 -0.015,-0.47679 -0.1779,-0.70859 -0.1202,-0.17118 -0.2947,-0.31469 -0.5276,-0.43387 -0.328,-0.1677 -0.388,-0.17806 -1.0323,-0.17806 -0.9879,0 -1.3011,0.1597 -1.8682,0.9525 -0.3159,0.44163 -0.5751,0.58494 -0.9623,0.53186 -0.9091,-0.12458 -1.2814,-0.97035 -0.8413,-1.91081 0.3518,-0.75184 1.2544,-1.42866 2.2785,-1.70864 0.4615,-0.12616 1.8977,-0.17675 2.4357,-0.0858 1.9611,0.33153 3.2126,1.56329 3.2175,3.16663 0.01,1.28743 -0.6286,2.36247 -2.1311,3.62175 -0.6544,0.54842 -0.9656,0.93405 -1.0763,1.33388 -0.038,0.13533 -0.086,0.52535 -0.1078,0.86672 -0.022,0.34135 -0.072,0.6804 -0.1119,0.75345 -0.1556,0.285 -0.8491,0.47093 -1.3985,0.37492 z"
       id="path11558-7" />
    <rect
       style="fill:none;fill-opacity:0.741176;stroke:#000000;stroke-width:1.11196;stroke-miterlimit:4;stroke-dasharray:none;stroke-opacity:1"
       id="rect5271-6"
       width="259.80203"
       height="37.114574"
       x="2107.6689"
       y="166.50777"
       rx="12.880896"
       ry="9.4085722" />
    <text
       xml:space="preserve"
       style="font-style:normal;font-variant:normal;font-weight:normal;font-stretch:normal;font-size:19.0117px;line-height:1.25;font-family:'DejaVu Math TeX Gyre';-inkscape-font-specification:'DejaVu Math TeX Gyre, Normal';font-variant-ligatures:normal;font-variant-caps:normal;font-variant-numeric:normal;font-variant-east-asian:normal;fill:#000000;fill-opacity:1;stroke:none;stroke-width:0.475294"
       x="2134.4404"
       y="190.31227"
       id="text5275-3"><tspan
         sodipodi:role="line"
         id="tspan7805"
         x="2134.4404"
         y="190.31227">Spawn Network Token</tspan></text>
    <rect
       style="fill:none;fill-opacity:0.741176;stroke:#000000;stroke-width:1.11196;stroke-miterlimit:4;stroke-dasharray:none;stroke-opacity:1"
       id="rect5277-7"
       width="259.80203"
       height="37.114574"
       x="2107.6689"
       y="224.71616"
       rx="12.880896"
       ry="9.4085722" />
    <text
       xml:space="preserve"
       style="font-style:normal;font-variant:normal;font-weight:normal;font-stretch:normal;font-size:19.0117px;line-height:1.25;font-family:'DejaVu Math TeX Gyre';-inkscape-font-specification:'DejaVu Math TeX Gyre, Normal';font-variant-ligatures:normal;font-variant-caps:normal;font-variant-numeric:normal;font-variant-east-asian:normal;fill:#000000;fill-opacity:1;stroke:none;stroke-width:0.475294"
       x="2167.165"
       y="249.56822"
       id="text5281-5"><tspan
         sodipodi:role="line"
         id="tspan8096"
         x="2167.165"
         y="249.56822">Script Address</tspan></text>
    <rect
       style="fill:#505050;fill-opacity:1;stroke:#000000;stroke-width:0.703084;stroke-miterlimit:4;stroke-dasharray:none;stroke-opacity:1"
       id="rect5536"
       width="103.86735"
       height="37.114574"
       x="1116.9448"
       y="288.63889"
       rx="5.1497073"
       ry="9.4085722" />
    <text
       xml:space="preserve"
       style="font-style:normal;font-variant:normal;font-weight:normal;font-stretch:normal;font-size:19.0117px;line-height:1.25;font-family:'DejaVu Math TeX Gyre';-inkscape-font-specification:'DejaVu Math TeX Gyre, Normal';font-variant-ligatures:normal;font-variant-caps:normal;font-variant-numeric:normal;font-variant-east-asian:normal;fill:#ffffff;fill-opacity:1;stroke:none;stroke-width:0.475294"
       x="1130.4655"
       y="312.13922"
       id="text7394"><tspan
         sodipodi:role="line"
         id="tspan7504"
         x="1130.4655"
         y="312.13922">Conjure</tspan></text>
    <rect
       style="fill:#505050;fill-opacity:1;stroke:#000000;stroke-width:0.722915;stroke-miterlimit:4;stroke-dasharray:none;stroke-opacity:1"
       id="rect5536-1"
       width="109.80921"
       height="37.114574"
       x="2182.6648"
       y="284.72678"
       rx="5.444303"
       ry="9.4085722" />
    <text
       xml:space="preserve"
       style="font-style:normal;font-variant:normal;font-weight:normal;font-stretch:normal;font-size:19.0117px;line-height:1.25;font-family:'DejaVu Math TeX Gyre';-inkscape-font-specification:'DejaVu Math TeX Gyre, Normal';font-variant-ligatures:normal;font-variant-caps:normal;font-variant-numeric:normal;font-variant-east-asian:normal;fill:#ffffff;fill-opacity:1;stroke:none;stroke-width:0.475294"
       x="2195.4111"
       y="310.37543"
       id="text7394-7"><tspan
         sodipodi:role="line"
         id="tspan7785"
         x="2195.4111"
         y="310.37543">Initialize</tspan></text>
    <rect
       style="fill:none;fill-opacity:0.741176;stroke:#000000;stroke-width:1.42588;stroke-miterlimit:4;stroke-dasharray:none;stroke-opacity:1"
       id="rect3940-0-5"
       width="752.78973"
       height="465.24963"
       x="3004.6052"
       y="-99.323738"
       rx="16.517429"
       ry="16.768402" />
    <path
       style="fill:#000000;stroke-width:0.0896248"
       d="m 3053.0326,-35.24413 c -0.5486,-0.27612 -0.806,-0.779501 -0.8084,-1.581041 v -0.585969 l -0.5136,-0.40462 c -1.206,-0.95016 -1.7036,-2.4108 -1.3214,-3.87851 0.073,-0.28145 0.2347,-0.672259 0.3585,-0.868489 0.124,-0.19622 0.2253,-0.41062 0.2253,-0.47648 0,-0.0659 -0.1579,-0.20842 -0.3508,-0.31686 -0.7324,-0.4116 -1.6345,-1.65365 -1.9016,-2.61812 -0.1412,-0.509903 -0.1429,-1.807652 0,-2.310172 0.1902,-0.68278 0.6195,-1.41396 1.1693,-1.99172 l 0.5354,-0.56274 -0.6767,-0.632 c -0.3722,-0.347601 -0.7814,-0.794851 -0.9094,-0.993891 -0.3352,-0.521449 -0.788,-1.429593 -0.8592,-1.723034 -0.2052,-0.845983 -0.2533,-1.121491 -0.2925,-1.677151 -0.024,-0.340137 2e-4,-0.793857 0.054,-1.008281 0.054,-0.214422 0.1442,-0.581439 0.2015,-0.815586 0.1435,-0.588054 0.878,-2.001195 1.2489,-2.403242 0.094,-0.101765 0.1707,-0.215769 0.1707,-0.253339 0,-0.03753 -0.1013,0.05213 -0.2253,0.199421 -0.2459,0.292227 -0.8877,0.552638 -1.362,0.552638 -1.3397,0 -2.1906,-1.567042 -1.4689,-2.70506 0.3525,-0.555794 1.0855,-0.928724 1.6684,-0.848826 0.4165,0.05705 0.9524,0.347359 1.2448,0.674255 0.1606,0.179531 0.2551,0.190883 1.5909,0.190883 h 1.4201 v -0.733208 -0.733189 l -4.0556,-4.065314 c -2.2305,-2.235921 -4.1314,-4.108277 -4.2241,-4.1608 -0.1478,-0.08369 -0.6999,0.434512 -4.4812,4.205953 -4.5541,4.542195 -4.612,4.591129 -5.282,4.464487 -0.4708,-0.08899 -0.8658,-0.387792 -1.0505,-0.794691 -0.211,-0.464824 -0.2202,-0.792328 -0.033,-1.167723 0.079,-0.157759 1.2163,-1.36415 2.5279,-2.680872 1.3116,-1.316723 2.3648,-2.413971 2.3404,-2.438319 -0.024,-0.02436 -0.204,0.01078 -0.3993,0.078 -0.1952,0.0672 -0.7381,0.224082 -1.2064,0.348572 -1.011,0.26877 -2.1724,0.582691 -3.9435,1.065886 -1.5797,0.43099 -2.1927,0.502869 -2.5801,0.30253 -0.3035,-0.15695 -0.6787,-0.606718 -0.7777,-0.93226 -0.1733,-0.570029 0.2861,-1.428827 0.9019,-1.686119 0.1543,-0.06445 0.9009,-0.280048 1.6594,-0.479138 1.6452,-0.431822 3.1063,-0.850339 3.1616,-0.905577 0.022,-0.0219 -2.9029,-0.02872 -6.4997,-0.01509 -4.4287,0.01671 -6.6543,-0.0066 -6.8949,-0.07099 -1.3336,-0.359101 -1.5336,-2.101774 -0.3073,-2.678173 0.4004,-0.188238 0.4059,-0.188323 11.7108,-0.188323 11.0689,0 11.3181,0.0038 11.6747,0.176532 0.2375,0.115076 1.6264,1.441186 3.9896,3.809187 1.9938,1.997965 3.6584,3.599447 3.699,3.558845 0.041,-0.04056 0.063,-0.857356 0.049,-1.815026 l -0.024,-1.741223 -0.6067,-0.06 c -0.3337,-0.03298 -0.737,-0.13473 -0.8963,-0.22611 -0.3184,-0.1827 -0.6929,-0.827261 -0.6929,-1.192713 0,-0.443389 0.3728,-1.015275 0.8033,-1.232344 0.3858,-0.194579 0.4866,-0.201659 2.8714,-0.201659 2.3848,0 2.4855,0.0075 2.8714,0.201659 0.2921,0.147304 0.4542,0.309411 0.6015,0.601552 0.2537,0.502964 0.2537,0.759138 0,1.259525 -0.2566,0.506289 -0.6221,0.714429 -1.3874,0.79009 l -0.6067,0.06 -0.024,1.741223 c -0.013,0.95767 0.01,1.774433 0.05,1.815026 0.041,0.04056 1.7052,-1.56088 3.699,-3.558845 2.3632,-2.368001 3.7521,-3.694118 3.9896,-3.809187 0.3567,-0.172759 0.6058,-0.176532 11.6746,-0.176532 11.305,0 11.3105,8.5e-5 11.7109,0.188323 1.2263,0.576399 1.0263,2.319072 -0.3073,2.678173 -0.2406,0.06472 -2.4662,0.08766 -6.8949,0.07099 -3.5968,-0.01347 -6.5217,-0.0066 -6.4997,0.01509 0.055,0.05526 1.5164,0.473755 3.1616,0.905577 0.7585,0.19909 1.5052,0.4147 1.6594,0.479138 0.6158,0.257292 1.0752,1.11609 0.9019,1.686119 -0.099,0.325542 -0.4742,0.775308 -0.7777,0.93226 -0.3874,0.200339 -1.0004,0.12846 -2.5801,-0.30253 -1.8093,-0.49361 -2.9023,-0.789079 -3.9211,-1.059924 -0.4806,-0.127777 -1.0336,-0.287309 -1.2288,-0.354534 -0.1953,-0.0672 -0.375,-0.102286 -0.3993,-0.078 -0.024,0.02436 1.0288,1.121596 2.3404,2.438319 1.3116,1.316722 2.4491,2.523115 2.5279,2.680872 0.3936,0.788491 -0.1579,1.787492 -1.0833,1.962414 -0.6701,0.126646 -0.728,0.07771 -5.282,-4.464487 -3.7813,-3.771441 -4.3335,-4.28967 -4.4813,-4.205953 -0.093,0.05251 -1.9935,1.924879 -4.2241,4.1608 l -4.0555,4.065314 v 0.733189 0.733208 h 1.4201 c 1.3357,0 1.4302,-0.01132 1.5908,-0.190883 0.2924,-0.326896 0.8283,-0.617171 1.2448,-0.674255 0.5829,-0.0799 1.316,0.293032 1.6685,0.848826 0.7217,1.138018 -0.1292,2.70506 -1.469,2.70506 -0.4743,0 -1.116,-0.260411 -1.3619,-0.552638 -0.124,-0.14725 -0.2253,-0.237 -0.2253,-0.199421 0,0.03753 0.077,0.151579 0.1706,0.253339 0.371,0.402047 1.1054,1.815188 1.249,2.403242 0.057,0.234147 0.1478,0.601164 0.2015,0.815586 0.054,0.214424 0.078,0.668144 0.054,1.008281 -0.039,0.55566 -0.087,0.831168 -0.2924,1.677151 -0.071,0.293441 -0.5241,1.201585 -0.8593,1.723034 -0.1279,0.19904 -0.5371,0.64629 -0.9093,0.993891 l -0.6768,0.632 0.5355,0.56274 c 0.5498,0.57776 0.979,1.30894 1.1693,1.99172 0.1399,0.50252 0.1385,1.800269 0,2.310172 -0.2671,0.96447 -1.1693,2.20652 -1.9016,2.61812 -0.193,0.10843 -0.3508,0.25103 -0.3508,0.31686 0,0.0659 0.1013,0.28026 0.2252,0.47648 0.1238,0.19623 0.2852,0.587039 0.3585,0.868489 0.3823,1.46771 -0.1153,2.92835 -1.3213,3.87851 l -0.5136,0.40462 v 0.585969 c 0,0.80154 -0.2598,1.304921 -0.8084,1.581041 -0.2218,0.11165 -0.5041,0.203 -0.6274,0.203 -0.1232,0 -0.4055,-0.0914 -0.6274,-0.203 z m -0.8963,-11.891322 c 0,-1.330929 -0.031,-2.419869 -0.07,-2.419869 -0.2865,0 -1.0827,0.77821 -1.3296,1.29956 -0.4489,0.948089 -0.2152,2.296002 0.5145,2.966492 0.3409,0.31324 0.711,0.5737 0.8151,0.5737 0.038,0 0.07,-1.08895 0.07,-2.419883 z m 3.4082,2.271893 c 0.122,-0.0814 0.3576,-0.27296 0.5239,-0.42571 0.9848,-0.90494 0.9848,-2.787422 0,-3.692352 -0.3409,-0.31324 -0.711,-0.5737 -0.8151,-0.5737 -0.038,0 -0.07,1.08894 -0.07,2.419869 0,1.330933 0.031,2.419883 0.07,2.419883 0.038,0 0.1693,-0.0666 0.2912,-0.14799 z m -3.4082,-11.195311 v -3.90442 l -0.3758,0.207393 c -0.5265,0.290606 -1.3288,1.108563 -1.6164,1.648102 -0.866,1.624407 -0.6313,3.604079 0.5851,4.935044 0.4087,0.447179 1.153,1.011869 1.3399,1.016599 0.037,9.4e-4 0.067,-1.75529 0.067,-3.902718 z m 3.5428,3.674108 c 0.5351,-0.31359 1.3222,-1.183749 1.592,-1.759907 0.5879,-1.255546 0.552,-2.748982 -0.095,-3.963126 -0.2876,-0.539539 -1.0899,-1.357496 -1.6165,-1.648102 l -0.3757,-0.207393 v 3.90442 c 0,2.147428 0.023,3.904418 0.051,3.904418 0.028,0 0.2281,-0.10363 0.4442,-0.23031 z"
       id="path11213-4-7" />
    <path
       style="fill:#000000;stroke-width:0.0591099"
       d="m 3720.8275,346.34974 c -2.2334,-0.22784 -3.861,-0.67957 -5.6406,-1.56557 -3.678,-1.83105 -6.4332,-5.03719 -7.6799,-8.9368 -0.4934,-1.54341 -0.6848,-2.82737 -0.6848,-4.59431 0,-1.82482 0.1997,-3.113 0.7329,-4.7288 2.5989,-7.87591 11.0762,-12.20569 18.9619,-9.68472 4.9688,1.58851 8.7706,5.6256 10.0666,10.68958 0.3188,1.24564 0.4301,2.18356 0.4351,3.66483 0.01,1.51743 -0.089,2.35114 -0.4113,3.66482 -0.2734,1.11286 -0.6204,2.05369 -1.1539,3.12843 -0.7664,1.54382 -1.6683,2.78972 -2.9025,4.0096 -1.2605,1.24587 -2.3666,2.03061 -3.9801,2.82383 -2.1069,1.03578 -3.9853,1.48868 -6.3543,1.53211 -0.634,0.0116 -1.2591,0.0103 -1.3891,-0.003 z m 3.1624,-2.23685 c 2.7513,-0.46979 5.1875,-1.7234 7.1234,-3.66536 1.9656,-1.97185 3.2089,-4.39976 3.6765,-7.17952 0.1489,-0.88484 0.1489,-3.14505 0,-4.0299 -0.8689,-5.16547 -4.5833,-9.2676 -9.5781,-10.57805 -1.2142,-0.31855 -1.7673,-0.38183 -3.3202,-0.37986 -1.5249,0.002 -2.1502,0.0777 -3.3825,0.4097 -5.1645,1.39154 -8.9853,5.89636 -9.5366,11.24373 -0.088,0.85632 -0.042,2.60506 0.09,3.38828 0.461,2.73699 1.7154,5.17493 3.6654,7.12377 2.151,2.1496 4.7968,3.40595 7.9518,3.77584 0.4943,0.058 2.7724,-0.0168 3.3102,-0.10863 z m -3.0039,-5.87904 c -0.5777,-0.19954 -0.9498,-0.69806 -1.0014,-1.34183 -0.024,-0.30257 -0.01,-0.41788 0.1173,-0.68151 0.5469,-1.18453 2.018,-1.25275 2.7145,-0.12588 0.1952,0.31584 0.2184,0.91214 0.05,1.30196 -0.1736,0.40384 -0.5517,0.74843 -0.9511,0.86705 -0.3957,0.11752 -0.5413,0.11442 -0.9299,-0.0198 z m 0.1371,-4.37466 c -0.5793,-0.10122 -0.7362,-0.37938 -0.7366,-1.30571 -2e-4,-0.7409 0.1052,-1.28487 0.3475,-1.79279 0.2669,-0.55924 0.5881,-0.92295 1.3618,-1.54244 1.0885,-0.8715 1.328,-1.2198 1.3308,-1.93502 0,-0.4103 -0.015,-0.47679 -0.1779,-0.70859 -0.1202,-0.17118 -0.2947,-0.31469 -0.5276,-0.43387 -0.328,-0.1677 -0.388,-0.17806 -1.0323,-0.17806 -0.9879,0 -1.3011,0.1597 -1.8682,0.9525 -0.3159,0.44163 -0.5751,0.58494 -0.9623,0.53186 -0.9091,-0.12458 -1.2814,-0.97035 -0.8413,-1.91081 0.3518,-0.75184 1.2544,-1.42866 2.2785,-1.70864 0.4615,-0.12616 1.8977,-0.17675 2.4357,-0.0858 1.9611,0.33153 3.2126,1.56329 3.2175,3.16663 0.01,1.28743 -0.6286,2.36247 -2.1311,3.62175 -0.6544,0.54842 -0.9656,0.93405 -1.0763,1.33388 -0.038,0.13533 -0.086,0.52535 -0.1078,0.86672 -0.022,0.34135 -0.072,0.6804 -0.1119,0.75345 -0.1556,0.285 -0.8491,0.47093 -1.3985,0.37492 z"
       id="path11558-7-4" />
    <rect
       style="fill:#505050;fill-opacity:1;stroke:#000000;stroke-width:0.722915;stroke-miterlimit:4;stroke-dasharray:none;stroke-opacity:1"
       id="rect5536-1-1"
       width="109.80921"
       height="37.114574"
       x="3326.0955"
       y="254.12947"
       rx="5.444303"
       ry="9.4085722" />
    <text
       xml:space="preserve"
       style="font-style:normal;font-variant:normal;font-weight:normal;font-stretch:normal;font-size:19.0117px;line-height:1.25;font-family:'DejaVu Math TeX Gyre';-inkscape-font-specification:'DejaVu Math TeX Gyre, Normal';font-variant-ligatures:normal;font-variant-caps:normal;font-variant-numeric:normal;font-variant-east-asian:normal;fill:#ffffff;fill-opacity:1;stroke:none;stroke-width:0.475294"
       x="3342.0356"
       y="279.54999"
       id="text7394-7-8"><tspan
         sodipodi:role="line"
         id="tspan8357"
         x="3342.0356"
         y="279.54999">Activate</tspan></text>
    <rect
       style="fill:none;fill-opacity:0.741176;stroke:#000000;stroke-width:1.11196;stroke-miterlimit:4;stroke-dasharray:none;stroke-opacity:1"
       id="rect7506"
       width="259.80203"
       height="37.114574"
       x="1038.9775"
       y="50.513844"
       rx="12.880896"
       ry="9.4085722" />
    <text
       xml:space="preserve"
       style="font-style:normal;font-variant:normal;font-weight:normal;font-stretch:normal;font-size:19.0117px;line-height:1.25;font-family:'DejaVu Math TeX Gyre';-inkscape-font-specification:'DejaVu Math TeX Gyre, Normal';font-variant-ligatures:normal;font-variant-caps:normal;font-variant-numeric:normal;font-variant-east-asian:normal;fill:#000000;fill-opacity:1;stroke:none;stroke-width:0.475294"
       x="1066.2821"
       y="190.60196"
       id="text7510"><tspan
         sodipodi:role="line"
         id="tspan7550"
         x="1066.2821"
         y="190.60196">Conjure Token Name</tspan></text>
    <path
       style="fill:#000000;stroke-width:0.0295176"
       d="m 2376.9748,192.59864 c -0.5298,-0.0896 -0.988,-0.47557 -1.1879,-1.00047 l -0.066,-0.17472 -0.01,-5.26226 c -0.01,-5.77468 -0.018,-5.44881 0.167,-5.8154 0.1713,-0.33928 0.4638,-0.59212 0.8539,-0.7383 0.1828,-0.0685 0.2443,-0.0748 0.8481,-0.0875 l 0.6509,-0.0137 0.095,-0.19179 c 0.4461,-0.90277 1.2834,-1.53525 2.3225,-1.7543 0.2736,-0.0577 0.9553,-0.0499 1.2546,0.0144 0.5642,0.12115 1.1393,0.41912 1.5672,0.81208 l 0.1947,0.17876 0.1818,-0.0735 c 0.3467,-0.13998 0.6179,-0.19464 1.0463,-0.21081 0.467,-0.0176 0.7328,0.0159 1.1276,0.14207 0.5301,0.16943 0.9578,0.43882 1.3524,0.85189 l 0.2245,0.23498 0.9384,0.009 c 0.8788,0.008 0.9468,0.0128 1.0715,0.0706 0.1656,0.0766 0.3165,0.22503 0.3871,0.38047 0.049,0.10778 0.054,0.21575 0.055,1.17101 v 1.05229 l 0.1024,0.15208 c 0.057,0.0836 0.116,0.2012 0.1326,0.26124 0.019,0.0683 0.031,0.69495 0.031,1.676 v 1.56684 l 0.1432,0.0928 c 0.1646,0.10664 0.2837,0.27051 0.3299,0.45386 0.021,0.0822 0.029,0.44247 0.023,1.01305 -0.01,0.84392 -0.012,0.89111 -0.073,1.00556 -0.071,0.13227 -0.2636,0.32042 -0.3596,0.35086 -0.061,0.0194 -0.062,0.0282 -0.069,1.66339 -0.01,1.53741 -0.013,1.6506 -0.064,1.74722 -0.077,0.14421 -0.2191,0.28894 -0.3583,0.36418 l -0.1181,0.0638 -6.361,0.004 c -3.4985,0.002 -6.3942,-0.002 -6.4349,-0.009 z m 12.7539,-0.56782 0.087,-0.0863 v -1.54945 -1.54944 l -0.7896,-0.0119 c -0.7191,-0.0108 -0.805,-0.0176 -0.9623,-0.0757 -0.2265,-0.0837 -0.3547,-0.16423 -0.5422,-0.34037 -0.8608,-0.80877 -0.4919,-2.24168 0.6559,-2.54774 0.1043,-0.0278 0.3664,-0.0395 0.893,-0.0397 l 0.7452,-3.4e-4 v -1.53638 c 0,-1.6591 0,-1.68921 -0.1555,-1.72523 -0.036,-0.009 -2.9017,-0.0187 -6.3679,-0.0226 l -6.302,-0.007 -0.1982,-0.0673 c -0.1089,-0.037 -0.2851,-0.12549 -0.3911,-0.19663 l -0.1928,-0.12933 v 1.7094 1.7094 h 0.8884 c 0.7615,0 0.903,-0.007 0.9903,-0.0483 0.083,-0.0392 0.4712,-0.45583 0.5509,-0.59056 0.011,-0.0186 -0.016,-0.11154 -0.061,-0.20662 -0.068,-0.14598 -0.081,-0.21189 -0.081,-0.42376 0,-0.20972 0.013,-0.27827 0.078,-0.41762 0.1,-0.2123 0.2809,-0.39352 0.4932,-0.49306 0.1416,-0.0665 0.2064,-0.0781 0.4323,-0.078 0.2354,1.1e-4 0.2853,0.0101 0.4382,0.0873 0.6084,0.30736 0.7478,1.11804 0.2762,1.60487 -0.1941,0.20027 -0.3729,0.27866 -0.6706,0.29382 -0.1904,0.01 -0.2798,8.9e-4 -0.3689,-0.0363 -0.1153,-0.0482 -0.1186,-0.0478 -0.1721,0.0189 -0.3639,0.45318 -0.4956,0.58276 -0.6886,0.67785 l -0.2001,0.0985 -0.9527,0.009 -0.9526,0.009 v 0.50028 0.5003 h 2.1672 2.1672 l 0.019,-0.0877 c 0.023,-0.10298 0.1928,-0.33961 0.3168,-0.44051 0.2498,-0.20327 0.6657,-0.26656 0.9797,-0.14907 0.2039,0.0763 0.4221,0.2706 0.5336,0.47518 0.1194,0.21916 0.1394,0.57971 0.046,0.82758 -0.084,0.22312 -0.2901,0.43986 -0.518,0.54517 -0.2503,0.11566 -0.5765,0.11811 -0.8153,0.006 -0.2313,-0.10845 -0.3932,-0.26535 -0.502,-0.48623 l -0.093,-0.18869 h -2.1515 -2.1514 l 0.01,0.50918 0.01,0.50918 0.9741,0.0148 0.974,0.0148 0.1524,0.0803 c 0.139,0.0734 0.2132,0.1463 0.6446,0.63417 l 0.089,0.10015 0.1907,-0.0491 c 0.4716,-0.12123 0.9405,0.0984 1.1594,0.54312 0.087,0.17526 0.096,0.22143 0.095,0.44697 0,0.21244 -0.014,0.2775 -0.082,0.41872 -0.098,0.20287 -0.2762,0.38665 -0.4762,0.49181 -0.1321,0.0695 -0.1822,0.0783 -0.4441,0.0786 -0.3497,3.3e-4 -0.5054,-0.0596 -0.7242,-0.27884 -0.2153,-0.21588 -0.2784,-0.37639 -0.279,-0.70968 0,-0.24896 0.01,-0.29961 0.084,-0.45146 l 0.084,-0.17104 -0.2186,-0.25696 c -0.1203,-0.14134 -0.2618,-0.28599 -0.3143,-0.32145 -0.1326,-0.0894 -0.2923,-0.10216 -1.1553,-0.092 l -0.7526,0.009 v 1.13643 c 0,1.10237 0,1.14056 0.063,1.27444 0.1235,0.26727 0.3938,0.50323 0.658,0.57447 0.104,0.0281 1.5514,0.0367 6.4165,0.0382 l 6.2821,0.002 z m -9.9545,-1.26811 c 0.1846,-0.13141 0.259,-0.3931 0.1715,-0.60255 -0.054,-0.12925 -0.2311,-0.27918 -0.3579,-0.30297 -0.3106,-0.0583 -0.6057,0.18726 -0.6057,0.50385 0,0.18723 0.1424,0.39212 0.3246,0.46709 0.099,0.0406 0.3723,0.002 0.4675,-0.0654 z m 10.4576,-2.51142 0.088,-0.0876 -0.01,-0.85964 -0.01,-0.85965 -0.071,-0.0579 c -0.068,-0.0552 -0.1147,-0.0575 -1.0183,-0.049 -0.9137,0.009 -0.9516,0.0112 -1.082,0.0754 -0.2195,0.1082 -0.3705,0.25808 -0.4761,0.47286 -0.088,0.17753 -0.097,0.22289 -0.096,0.44891 0,0.29881 0.062,0.45699 0.2505,0.66228 0.2911,0.31572 0.3846,0.33735 1.4698,0.33985 l 0.8656,0.002 0.088,-0.0876 z m -8.5019,-0.48286 c 0.1695,-0.0894 0.2618,-0.24804 0.2625,-0.45094 0,-0.26453 -0.1798,-0.45488 -0.4532,-0.47755 -0.383,-0.0318 -0.6506,0.33325 -0.4976,0.67904 0.1259,0.28449 0.4199,0.39105 0.6883,0.24945 z m -2.01,-3.01594 c 0.297,-0.15357 0.3519,-0.58959 0.102,-0.80905 -0.2049,-0.17987 -0.4712,-0.17987 -0.6761,0 -0.2458,0.21578 -0.203,0.62215 0.084,0.79707 0.1128,0.0688 0.3684,0.075 0.4903,0.012 z m -1.5147,-2.74169 c -0.2282,-0.59459 -0.2948,-1.46654 -0.1488,-1.94754 0.016,-0.0525 -0.01,-0.0544 -0.5251,-0.0434 -0.5088,0.0108 -0.5518,0.0162 -0.7076,0.0885 -0.2327,0.10788 -0.3931,0.26414 -0.5054,0.49212 -0.085,0.17179 -0.096,0.2241 -0.096,0.43221 0,0.2891 0.064,0.44716 0.27,0.66674 0.1534,0.16397 0.358,0.28318 0.5518,0.32155 0.067,0.0133 0.3596,0.0257 0.6495,0.0274 0.4374,0.003 0.5244,-0.004 0.5115,-0.0376 z m 3.5681,-0.48313 c 0,-0.46969 0.011,-0.55382 0.08,-0.81254 0.1878,-0.69672 0.5762,-1.29094 1.1349,-1.73601 l 0.2128,-0.16959 -0.1195,-0.10809 c -0.3055,-0.27592 -0.7665,-0.51088 -1.229,-0.62634 -0.2755,-0.0688 -0.9504,-0.0683 -1.2276,7.6e-4 -0.816,0.20348 -1.5186,0.76016 -1.8615,1.47505 -0.3441,0.71742 -0.3729,1.56215 -0.077,2.2722 l 0.095,0.22846 1.4952,1e-5 h 1.4954 v -0.52394 z m 5.9854,0.42801 c 0.043,-0.25535 0.051,-0.50315 0.02,-0.7416 -0.1497,-1.18825 -1.0347,-2.15421 -2.1914,-2.39213 -0.2859,-0.0588 -0.8393,-0.0608 -1.1062,-0.004 -0.9467,0.20144 -1.7233,0.86021 -2.0443,1.73427 -0.1332,0.36303 -0.1613,0.52941 -0.1627,0.96806 0,0.2354 0.01,0.45125 0.02,0.47966 0.019,0.0487 0.1781,0.0517 2.7343,0.0517 h 2.7134 z m 1.7906,-0.84601 v -0.94194 l -0.091,-0.0764 -0.09,-0.0764 h -0.7187 -0.7187 l 0.099,0.22876 c 0.201,0.46474 0.3063,1.10131 0.2551,1.54229 -0.015,0.12176 -0.02,0.23135 -0.014,0.24352 0.01,0.0122 0.2973,0.0221 0.6454,0.0221 h 0.6329 z"
       id="path29121" />
    <rect
       style="fill:none;fill-opacity:0.741176;stroke:#000000;stroke-width:1.11196;stroke-miterlimit:4;stroke-dasharray:none;stroke-opacity:1"
       id="rect5271-6-9"
       width="259.80203"
       height="37.114574"
       x="3243.2595"
       y="181.47623"
       rx="12.880896"
       ry="9.4085722" />
    <text
       xml:space="preserve"
       style="font-style:normal;font-variant:normal;font-weight:normal;font-stretch:normal;font-size:19.0117px;line-height:1.25;font-family:'DejaVu Math TeX Gyre';-inkscape-font-specification:'DejaVu Math TeX Gyre, Normal';font-variant-ligatures:normal;font-variant-caps:normal;font-variant-numeric:normal;font-variant-east-asian:normal;fill:#000000;fill-opacity:1;stroke:none;stroke-width:0.475294"
       x="3262.6553"
       y="205.28075"
       id="text5275-3-7"><tspan
         sodipodi:role="line"
         id="tspan7805-5"
         x="3262.6553"
         y="205.28075">Spawn Network Token</tspan></text>
    <path
       style="fill:#000000;stroke-width:0.0295176"
       d="m 3512.5653,207.56709 c -0.5298,-0.0896 -0.988,-0.47557 -1.1879,-1.00047 l -0.066,-0.17472 -0.01,-5.26226 c -0.01,-5.77468 -0.018,-5.44881 0.167,-5.8154 0.1713,-0.33928 0.4638,-0.59212 0.8539,-0.7383 0.1828,-0.0685 0.2443,-0.0748 0.8481,-0.0875 l 0.6509,-0.0137 0.095,-0.19179 c 0.4461,-0.90277 1.2834,-1.53525 2.3225,-1.7543 0.2736,-0.0577 0.9553,-0.0499 1.2546,0.0144 0.5642,0.12115 1.1393,0.41912 1.5672,0.81208 l 0.1947,0.17876 0.1818,-0.0735 c 0.3467,-0.13998 0.6179,-0.19464 1.0463,-0.21081 0.467,-0.0176 0.7328,0.0159 1.1276,0.14207 0.5301,0.16943 0.9578,0.43882 1.3524,0.85189 l 0.2245,0.23498 0.9384,0.009 c 0.8788,0.008 0.9468,0.0128 1.0715,0.0706 0.1656,0.0766 0.3165,0.22503 0.3871,0.38047 0.049,0.10778 0.054,0.21575 0.055,1.17101 v 1.05229 l 0.1024,0.15208 c 0.057,0.0836 0.116,0.2012 0.1326,0.26124 0.019,0.0683 0.031,0.69495 0.031,1.676 v 1.56684 l 0.1432,0.0928 c 0.1646,0.10664 0.2837,0.27051 0.3299,0.45386 0.021,0.0822 0.029,0.44247 0.023,1.01305 -0.01,0.84392 -0.012,0.89111 -0.073,1.00556 -0.071,0.13227 -0.2636,0.32042 -0.3596,0.35086 -0.061,0.0194 -0.062,0.0282 -0.069,1.66339 -0.01,1.53741 -0.013,1.6506 -0.064,1.74722 -0.077,0.14421 -0.2191,0.28894 -0.3583,0.36418 l -0.1181,0.0638 -6.361,0.004 c -3.4985,0.002 -6.3942,-0.002 -6.4349,-0.009 z m 12.7539,-0.56782 0.087,-0.0863 v -1.54945 -1.54944 l -0.7896,-0.0119 c -0.7191,-0.0108 -0.805,-0.0176 -0.9623,-0.0757 -0.2265,-0.0837 -0.3547,-0.16423 -0.5422,-0.34037 -0.8608,-0.80877 -0.4919,-2.24168 0.6559,-2.54774 0.1043,-0.0278 0.3664,-0.0395 0.893,-0.0397 l 0.7452,-3.4e-4 v -1.53638 c 0,-1.6591 0,-1.68921 -0.1555,-1.72523 -0.036,-0.009 -2.9017,-0.0187 -6.3679,-0.0226 l -6.302,-0.007 -0.1982,-0.0673 c -0.1089,-0.037 -0.2851,-0.12549 -0.3911,-0.19663 l -0.1928,-0.12933 v 1.7094 1.7094 h 0.8884 c 0.7615,0 0.903,-0.007 0.9903,-0.0483 0.083,-0.0392 0.4712,-0.45583 0.5509,-0.59056 0.011,-0.0186 -0.016,-0.11154 -0.061,-0.20662 -0.068,-0.14598 -0.081,-0.21189 -0.081,-0.42376 0,-0.20972 0.013,-0.27827 0.078,-0.41762 0.1,-0.2123 0.2809,-0.39352 0.4932,-0.49306 0.1416,-0.0665 0.2064,-0.0781 0.4323,-0.078 0.2354,1.1e-4 0.2853,0.0101 0.4382,0.0873 0.6084,0.30736 0.7478,1.11804 0.2762,1.60487 -0.1941,0.20027 -0.3729,0.27866 -0.6706,0.29382 -0.1904,0.01 -0.2798,8.9e-4 -0.3689,-0.0363 -0.1153,-0.0482 -0.1186,-0.0478 -0.1721,0.0189 -0.3639,0.45318 -0.4956,0.58276 -0.6886,0.67785 l -0.2001,0.0985 -0.9527,0.009 -0.9526,0.009 v 0.50028 0.5003 h 2.1672 2.1672 l 0.019,-0.0877 c 0.023,-0.10298 0.1928,-0.33961 0.3168,-0.44051 0.2498,-0.20327 0.6657,-0.26656 0.9797,-0.14907 0.2039,0.0763 0.4221,0.2706 0.5336,0.47518 0.1194,0.21916 0.1394,0.57971 0.046,0.82758 -0.084,0.22312 -0.2901,0.43986 -0.518,0.54517 -0.2503,0.11566 -0.5765,0.11811 -0.8153,0.006 -0.2313,-0.10845 -0.3932,-0.26535 -0.502,-0.48623 l -0.093,-0.18869 h -2.1515 -2.1514 l 0.01,0.50918 0.01,0.50918 0.9741,0.0148 0.974,0.0148 0.1524,0.0803 c 0.139,0.0734 0.2132,0.1463 0.6446,0.63417 l 0.089,0.10015 0.1907,-0.0491 c 0.4716,-0.12123 0.9405,0.0984 1.1594,0.54312 0.087,0.17526 0.096,0.22143 0.095,0.44697 0,0.21244 -0.014,0.2775 -0.082,0.41872 -0.098,0.20287 -0.2762,0.38665 -0.4762,0.49181 -0.1321,0.0695 -0.1822,0.0783 -0.4441,0.0786 -0.3497,3.3e-4 -0.5054,-0.0596 -0.7242,-0.27884 -0.2153,-0.21588 -0.2784,-0.37639 -0.279,-0.70968 0,-0.24896 0.01,-0.29961 0.084,-0.45146 l 0.084,-0.17104 -0.2186,-0.25696 c -0.1203,-0.14134 -0.2618,-0.28599 -0.3143,-0.32145 -0.1326,-0.0894 -0.2923,-0.10216 -1.1553,-0.092 l -0.7526,0.009 v 1.13643 c 0,1.10237 0,1.14056 0.063,1.27444 0.1235,0.26727 0.3938,0.50323 0.658,0.57447 0.104,0.0281 1.5514,0.0367 6.4165,0.0382 l 6.2821,0.002 z m -9.9545,-1.26811 c 0.1846,-0.13141 0.259,-0.3931 0.1715,-0.60255 -0.054,-0.12925 -0.2311,-0.27918 -0.3579,-0.30297 -0.3106,-0.0583 -0.6057,0.18726 -0.6057,0.50385 0,0.18723 0.1424,0.39212 0.3246,0.46709 0.099,0.0406 0.3723,0.002 0.4675,-0.0654 z m 10.4576,-2.51142 0.088,-0.0876 -0.01,-0.85964 -0.01,-0.85965 -0.071,-0.0579 c -0.068,-0.0552 -0.1147,-0.0575 -1.0183,-0.049 -0.9137,0.009 -0.9516,0.0112 -1.082,0.0754 -0.2195,0.1082 -0.3705,0.25808 -0.4761,0.47286 -0.088,0.17753 -0.097,0.22289 -0.096,0.44891 0,0.29881 0.062,0.45699 0.2505,0.66228 0.2911,0.31572 0.3846,0.33735 1.4698,0.33985 l 0.8656,0.002 0.088,-0.0876 z m -8.5019,-0.48286 c 0.1695,-0.0894 0.2618,-0.24804 0.2625,-0.45094 0,-0.26453 -0.1798,-0.45488 -0.4532,-0.47755 -0.383,-0.0318 -0.6506,0.33325 -0.4976,0.67904 0.1259,0.28449 0.4199,0.39105 0.6883,0.24945 z m -2.01,-3.01594 c 0.297,-0.15357 0.3519,-0.58959 0.102,-0.80905 -0.2049,-0.17987 -0.4712,-0.17987 -0.6761,0 -0.2458,0.21578 -0.203,0.62215 0.084,0.79707 0.1128,0.0688 0.3684,0.075 0.4903,0.012 z m -1.5147,-2.74169 c -0.2282,-0.59459 -0.2948,-1.46654 -0.1488,-1.94754 0.016,-0.0525 -0.01,-0.0544 -0.5251,-0.0434 -0.5088,0.0108 -0.5518,0.0162 -0.7076,0.0885 -0.2327,0.10788 -0.3931,0.26414 -0.5054,0.49212 -0.085,0.17179 -0.096,0.2241 -0.096,0.43221 0,0.2891 0.064,0.44716 0.27,0.66674 0.1534,0.16397 0.358,0.28318 0.5518,0.32155 0.067,0.0133 0.3596,0.0257 0.6495,0.0274 0.4374,0.003 0.5244,-0.004 0.5115,-0.0376 z m 3.5681,-0.48313 c 0,-0.46969 0.011,-0.55382 0.08,-0.81254 0.1878,-0.69672 0.5762,-1.29094 1.1349,-1.73601 l 0.2128,-0.16959 -0.1195,-0.10809 c -0.3055,-0.27592 -0.7665,-0.51088 -1.229,-0.62634 -0.2755,-0.0688 -0.9504,-0.0683 -1.2276,7.6e-4 -0.816,0.20348 -1.5186,0.76016 -1.8615,1.47505 -0.3441,0.71742 -0.3729,1.56215 -0.077,2.2722 l 0.095,0.22846 1.4952,1e-5 h 1.4954 v -0.52394 z m 5.9854,0.42801 c 0.043,-0.25535 0.051,-0.50315 0.02,-0.7416 -0.1497,-1.18825 -1.0347,-2.15421 -2.1914,-2.39213 -0.2859,-0.0588 -0.8393,-0.0608 -1.1062,-0.004 -0.9467,0.20144 -1.7233,0.86021 -2.0443,1.73427 -0.1332,0.36303 -0.1613,0.52941 -0.1627,0.96806 0,0.2354 0.01,0.45125 0.02,0.47966 0.019,0.0487 0.1781,0.0517 2.7343,0.0517 h 2.7134 z m 1.7906,-0.84601 v -0.94194 l -0.091,-0.0764 -0.09,-0.0764 h -0.7187 -0.7187 l 0.099,0.22876 c 0.201,0.46474 0.3063,1.10131 0.2551,1.54229 -0.015,0.12176 -0.02,0.23135 -0.014,0.24352 0.01,0.0122 0.2973,0.0221 0.6454,0.0221 h 0.6329 z"
       id="path29121-3" />
    <rect
       style="fill:#ffffff;fill-opacity:1;stroke:#000000;stroke-width:0.75828497;stroke-miterlimit:4;stroke-dasharray:3.03313987,6.06627973;stroke-dashoffset:0"
       id="rect8200"
       width="136.09605"
       height="167.95869"
       x="2447.0022"
       y="-49.350533"
       rx="18.067858"
       ry="15.17584" />
    <rect
       style="fill:#ffffff;fill-opacity:1;stroke:#000000;stroke-width:0.758285;stroke-miterlimit:4;stroke-dasharray:3.03314, 6.06628;stroke-dashoffset:0"
       id="rect8200-8"
       width="136.09605"
       height="167.95869"
       x="3600.6426"
       y="-73.583839"
       rx="18.067858"
       ry="15.17584" />
    <rect
       style="fill:#ffffff;fill-opacity:1;stroke:#000000;stroke-width:1.48493;stroke-miterlimit:4;stroke-dasharray:none;stroke-opacity:1"
       id="rect25720"
       width="752.78973"
       height="504.58493"
       x="4077.3252"
       y="-105.9556"
       rx="16.517429"
       ry="18.186115" />
    <path
       style="fill:#000000;stroke-width:0.0815428"
       d="m 4128.0934,-25.84236 c -0.4991,-0.25122 -0.7333,-0.70921 -0.7355,-1.43847 v -0.53313 l -0.4673,-0.36813 c -1.0972,-0.86448 -1.55,-2.1934 -1.2022,-3.52876 0.066,-0.25607 0.2135,-0.61164 0.3261,-0.79018 0.1129,-0.17852 0.205,-0.37359 0.205,-0.43351 0,-0.06 -0.1436,-0.18963 -0.3192,-0.28829 -0.6663,-0.37448 -1.4871,-1.50453 -1.7301,-2.38203 -0.1284,-0.46392 -0.13,-1.64465 0,-2.10185 0.1731,-0.62121 0.5637,-1.28646 1.0639,-1.81212 l 0.4871,-0.51199 -0.6157,-0.57501 c -0.3386,-0.31626 -0.7109,-0.72318 -0.8274,-0.90427 -0.3049,-0.47443 -0.7169,-1.30068 -0.7817,-1.56766 -0.1867,-0.7697 -0.2304,-1.02036 -0.2661,-1.52592 -0.022,-0.30946 2e-4,-0.72227 0.049,-0.91736 0.049,-0.19508 0.1312,-0.529 0.1833,-0.74204 0.1306,-0.53502 0.7989,-1.82073 1.1363,-2.18653 0.086,-0.0926 0.1553,-0.19631 0.1553,-0.23049 0,-0.0341 -0.092,0.0474 -0.2049,0.18144 -0.2238,0.26587 -0.8077,0.5028 -1.2392,0.5028 -1.2189,0 -1.9931,-1.42572 -1.3365,-2.46112 0.3207,-0.50567 0.9876,-0.84497 1.518,-0.77228 0.3789,0.0519 0.8665,0.31604 1.1325,0.61345 0.1461,0.16335 0.2321,0.17367 1.4475,0.17367 h 1.292 v -0.66709 -0.66707 l -3.6899,-3.698737 c -2.0293,-2.03429 -3.7588,-3.737797 -3.8432,-3.785577 -0.1344,-0.0761 -0.6367,0.39533 -4.0771,3.826657 -4.1434,4.132617 -4.1961,4.177137 -4.8057,4.061917 -0.4283,-0.081 -0.7877,-0.35282 -0.9557,-0.72303 -0.192,-0.422907 -0.2004,-0.720877 -0.03,-1.062417 0.072,-0.14354 1.1067,-1.24114 2.3,-2.43914 1.1933,-1.19799 2.1515,-2.196287 2.1293,-2.218437 -0.022,-0.0222 -0.1856,0.01 -0.3633,0.071 -0.1775,0.0611 -0.6715,0.203867 -1.0976,0.317137 -0.9198,0.24453 -1.9765,0.53014 -3.5879,0.96976 -1.4372,0.39213 -1.9949,0.45753 -2.3474,0.27525 -0.2761,-0.14279 -0.6175,-0.552 -0.7076,-0.84819 -0.1576,-0.51863 0.2603,-1.299977 0.8206,-1.534057 0.1404,-0.0586 0.8197,-0.2548 1.5098,-0.43593 1.4968,-0.39289 2.8262,-0.77366 2.8765,-0.82392 0.02,-0.0199 -2.6412,-0.0261 -5.9136,-0.0137 -4.0294,0.0152 -6.0543,-0.006 -6.2732,-0.0646 -1.2133,-0.32672 -1.3953,-1.91224 -0.2796,-2.43667 0.3643,-0.17126 0.3693,-0.17134 10.6548,-0.17134 10.0708,0 10.2975,0.004 10.6219,0.16062 0.2161,0.10469 1.4798,1.31122 3.6299,3.46569 1.814,1.817787 3.3285,3.274847 3.3654,3.237907 0.037,-0.0369 0.057,-0.78004 0.045,-1.65135 l -0.022,-1.584197 -0.552,-0.0546 c -0.3036,-0.03 -0.6706,-0.12258 -0.8155,-0.20572 -0.2897,-0.16623 -0.6304,-0.75266 -0.6304,-1.08516 0,-0.40341 0.3392,-0.92372 0.7308,-1.12122 0.3511,-0.17703 0.4428,-0.18347 2.6125,-0.18347 2.1698,0 2.2614,0.007 2.6125,0.18347 0.2657,0.13402 0.4132,0.28151 0.5472,0.54731 0.2309,0.45761 0.2309,0.69068 0,1.14595 -0.2334,0.46063 -0.566,0.65 -1.2622,0.71884 l -0.552,0.0546 -0.022,1.584197 c -0.012,0.87131 0.01,1.61442 0.046,1.65135 0.037,0.0369 1.5515,-1.42012 3.3655,-3.237907 2.1501,-2.15447 3.4137,-3.361 3.6298,-3.46569 0.3245,-0.15718 0.5512,-0.16062 10.6218,-0.16062 10.2856,0 10.2906,8e-5 10.6549,0.17134 1.1157,0.52443 0.9338,2.10995 -0.2796,2.43667 -0.2189,0.0589 -2.2438,0.0798 -6.2731,0.0646 -3.2725,-0.0123 -5.9336,-0.006 -5.9136,0.0137 0.05,0.0503 1.3796,0.43103 2.8765,0.82392 0.6901,0.18113 1.3694,0.3773 1.5097,0.43593 0.5603,0.23408 0.9783,1.015427 0.8206,1.534057 -0.09,0.29619 -0.4314,0.7054 -0.7076,0.84819 -0.3524,0.18228 -0.9101,0.11688 -2.3474,-0.27525 -1.6461,-0.44909 -2.6406,-0.71792 -3.5675,-0.96434 -0.4373,-0.11625 -0.9404,-0.261397 -1.118,-0.322557 -0.1777,-0.0611 -0.3412,-0.0931 -0.3633,-0.071 -0.022,0.0222 0.936,1.020447 2.1294,2.218437 1.1933,1.198 2.2282,2.29561 2.2999,2.43914 0.3581,0.71738 -0.1437,1.626297 -0.9856,1.785447 -0.6097,0.11522 -0.6624,0.0707 -4.8057,-4.061917 -3.4403,-3.431327 -3.9427,-3.902827 -4.0772,-3.826657 -0.085,0.0478 -1.8137,1.751287 -3.8432,3.785577 l -3.6898,3.698737 v 0.66707 0.66709 h 1.2921 c 1.2152,0 1.3012,-0.0103 1.4473,-0.17367 0.266,-0.29741 0.7536,-0.56151 1.1326,-0.61345 0.5303,-0.0727 1.1973,0.26661 1.518,0.77228 0.6566,1.0354 -0.1176,2.46112 -1.3365,2.46112 -0.4316,0 -1.0154,-0.23693 -1.2391,-0.5028 -0.1128,-0.13397 -0.205,-0.21563 -0.205,-0.18144 0,0.0341 0.07,0.13791 0.1552,0.23049 0.3376,0.3658 1.0057,1.65151 1.1364,2.18653 0.052,0.21304 0.1345,0.54696 0.1833,0.74204 0.049,0.19509 0.071,0.6079 0.049,0.91736 -0.035,0.50556 -0.079,0.75622 -0.266,1.52592 -0.065,0.26698 -0.4768,1.09323 -0.7818,1.56766 -0.1164,0.18109 -0.4887,0.58801 -0.8273,0.90427 l -0.6158,0.57501 0.4872,0.51199 c 0.5003,0.52566 0.8908,1.19091 1.0639,1.81212 0.1273,0.4572 0.126,1.63793 0,2.10185 -0.243,0.8775 -1.0639,2.00755 -1.7301,2.38203 -0.1756,0.0987 -0.3192,0.2284 -0.3192,0.28829 0,0.06 0.092,0.25499 0.2049,0.43351 0.1126,0.17854 0.2595,0.53411 0.3262,0.79018 0.3478,1.33536 -0.1049,2.66428 -1.2022,3.52876 l -0.4673,0.36813 v 0.53313 c 0,0.72926 -0.2363,1.18725 -0.7355,1.43847 -0.2018,0.10158 -0.4586,0.1847 -0.5708,0.1847 -0.1121,0 -0.3689,-0.0832 -0.5708,-0.1847 z m -0.8155,-10.81902 c 0,-1.21091 -0.028,-2.20166 -0.064,-2.20166 -0.2606,0 -0.985,0.70804 -1.2097,1.18238 -0.4084,0.86259 -0.1958,2.08896 0.4681,2.69898 0.3102,0.285 0.6469,0.52197 0.7416,0.52197 0.035,0 0.064,-0.99075 0.064,-2.20167 z m 3.1009,2.06703 c 0.111,-0.0741 0.3253,-0.24835 0.4766,-0.38733 0.896,-0.82333 0.896,-2.53606 0,-3.35939 -0.3101,-0.28499 -0.6468,-0.52197 -0.7416,-0.52197 -0.034,0 -0.064,0.99075 -0.064,2.20166 0,1.21092 0.028,2.20167 0.064,2.20167 0.035,0 0.1541,-0.0606 0.265,-0.13464 z m -3.1009,-10.18578 v -3.55234 l -0.3419,0.18869 c -0.479,0.2644 -1.209,1.0086 -1.4706,1.49949 -0.7879,1.47792 -0.5744,3.27908 0.5323,4.49003 0.3718,0.40685 1.049,0.92062 1.2191,0.92492 0.034,8.6e-4 0.061,-1.597 0.061,-3.55079 z m 3.2233,3.3428 c 0.4869,-0.28531 1.203,-1.07701 1.4485,-1.60121 0.5349,-1.14233 0.5022,-2.5011 -0.086,-3.60575 -0.2616,-0.49089 -0.9916,-1.23509 -1.4707,-1.49949 l -0.3418,-0.18869 v 3.55234 c 0,1.95379 0.021,3.55234 0.046,3.55234 0.025,0 0.2075,-0.0943 0.4041,-0.20954 z"
       id="path25722" />
    <rect
       style="fill:#ffffff;fill-opacity:1;stroke:#000000;stroke-width:0.264583;stroke-miterlimit:4;stroke-dasharray:none;stroke-opacity:1;filter:url(#filter21379)"
       id="rect25742"
       width="391.1134"
       height="241.72139"
       x="4174.9272"
       y="-29.793318"
       rx="15.348093"
       ry="15.581282"
       transform="matrix(1.469764,0,0,1.469764,-1957.7862,17.440276)" />
    <text
       xml:space="preserve"
       style="font-style:normal;font-variant:normal;font-weight:normal;font-stretch:normal;font-size:23.7472px;line-height:1.25;font-family:'DejaVu Math TeX Gyre';-inkscape-font-specification:'DejaVu Math TeX Gyre, Normal';font-variant-ligatures:normal;font-variant-caps:normal;font-variant-numeric:normal;font-variant-east-asian:normal;fill:#000000;fill-opacity:1;stroke:none;stroke-width:0.44526"
       x="4417.1992"
       y="12.465836"
       id="text25756"><tspan
         sodipodi:role="line"
         id="tspan25754"
         style="font-style:normal;font-variant:normal;font-weight:normal;font-stretch:normal;font-size:23.7472px;font-family:'DejaVu Math TeX Gyre';-inkscape-font-specification:'DejaVu Math TeX Gyre, Normal';font-variant-ligatures:normal;font-variant-caps:normal;font-variant-numeric:normal;font-variant-east-asian:normal;stroke-width:0.44526"
         x="4417.1992"
         y="12.465836">Network</tspan></text>
    <path
       style="fill:#000000;stroke-width:0.0295176"
       d="m 4770.0487,-48.49643 c -0.5298,-0.0896 -0.988,-0.47557 -1.1879,-1.00047 l -0.066,-0.17472 -0.01,-5.262257 c -0.01,-5.774677 -0.018,-5.448807 0.167,-5.815397 0.1713,-0.33928 0.4638,-0.59212 0.8539,-0.7383 0.1828,-0.0685 0.2443,-0.0748 0.8481,-0.0875 l 0.6509,-0.0137 0.095,-0.19179 c 0.4461,-0.90277 1.2834,-1.535247 2.3225,-1.754297 0.2736,-0.0577 0.9553,-0.0499 1.2546,0.0144 0.5642,0.12115 1.1393,0.41912 1.5672,0.812077 l 0.1947,0.17876 0.1818,-0.0735 c 0.3467,-0.13998 0.6179,-0.19464 1.0463,-0.21081 0.467,-0.0176 0.7328,0.0159 1.1276,0.14207 0.5301,0.16943 0.9578,0.43882 1.3524,0.85189 l 0.2245,0.23498 0.9384,0.009 c 0.8788,0.008 0.9468,0.0128 1.0715,0.0706 0.1656,0.0766 0.3165,0.22503 0.3871,0.38047 0.049,0.10778 0.054,0.21575 0.055,1.17101 v 1.05229 l 0.1024,0.15208 c 0.057,0.0836 0.116,0.2012 0.1326,0.26124 0.019,0.0683 0.031,0.69495 0.031,1.675997 v 1.56684 l 0.1432,0.0928 c 0.1646,0.10664 0.2837,0.27051 0.3299,0.45386 0.021,0.0822 0.029,0.44247 0.023,1.01305 -0.01,0.84392 -0.012,0.89111 -0.073,1.00556 -0.071,0.13227 -0.2636,0.320417 -0.3596,0.350857 -0.061,0.0194 -0.062,0.0282 -0.069,1.66339 -0.01,1.53741 -0.013,1.6506 -0.064,1.74722 -0.077,0.14421 -0.2191,0.28894 -0.3583,0.36418 l -0.1181,0.0638 -6.361,0.004 c -3.4985,0.002 -6.3942,-0.002 -6.4349,-0.009 z m 12.7539,-0.56782 0.087,-0.0863 V -50.7 -52.24944 l -0.7896,-0.0119 c -0.7191,-0.0108 -0.805,-0.0176 -0.9623,-0.0757 -0.2265,-0.0837 -0.3547,-0.164227 -0.5422,-0.340367 -0.8608,-0.80877 -0.4919,-2.24168 0.6559,-2.54774 0.1043,-0.0278 0.3664,-0.0395 0.893,-0.0397 l 0.7452,-3.4e-4 v -1.53638 c 0,-1.659097 0,-1.689207 -0.1555,-1.725227 -0.036,-0.009 -2.9017,-0.0187 -6.3679,-0.0226 l -6.302,-0.007 -0.1982,-0.0673 c -0.1089,-0.037 -0.2851,-0.12549 -0.3911,-0.19663 l -0.1928,-0.12933 v 1.709397 1.7094 h 0.8884 c 0.7615,0 0.903,-0.007 0.9903,-0.0483 0.083,-0.0392 0.4712,-0.45583 0.5509,-0.59056 0.011,-0.0186 -0.016,-0.11154 -0.061,-0.20662 -0.068,-0.14598 -0.081,-0.21189 -0.081,-0.42376 0,-0.20972 0.013,-0.27827 0.078,-0.41762 0.1,-0.2123 0.2809,-0.39352 0.4932,-0.493057 0.1416,-0.0665 0.2064,-0.0781 0.4323,-0.078 0.2354,1.1e-4 0.2853,0.0101 0.4382,0.0873 0.6084,0.307357 0.7478,1.118037 0.2762,1.604867 -0.1941,0.20027 -0.3729,0.27866 -0.6706,0.29382 -0.1904,0.01 -0.2798,8.9e-4 -0.3689,-0.0363 -0.1153,-0.0482 -0.1186,-0.0478 -0.1721,0.0189 -0.3639,0.45318 -0.4956,0.58276 -0.6886,0.67785 l -0.2001,0.0985 -0.9527,0.009 -0.9526,0.009 v 0.50028 0.5003 h 2.1672 2.1672 l 0.019,-0.0877 c 0.023,-0.10298 0.1928,-0.33961 0.3168,-0.44051 0.2498,-0.20327 0.6657,-0.26656 0.9797,-0.14907 0.2039,0.0763 0.4221,0.2706 0.5336,0.47518 0.1194,0.21916 0.1394,0.57971 0.046,0.82758 -0.084,0.22312 -0.2901,0.43986 -0.518,0.54517 -0.2503,0.11566 -0.5765,0.11811 -0.8153,0.006 -0.2313,-0.10845 -0.3932,-0.26535 -0.502,-0.48623 l -0.093,-0.18869 h -2.1515 -2.1514 l 0.01,0.50918 0.01,0.50918 0.9741,0.0148 0.974,0.0148 0.1524,0.0803 c 0.139,0.0734 0.2132,0.146297 0.6446,0.634167 l 0.089,0.10015 0.1907,-0.0491 c 0.4716,-0.12123 0.9405,0.0984 1.1594,0.54312 0.087,0.17526 0.096,0.22143 0.095,0.44697 0,0.21244 -0.014,0.2775 -0.082,0.41872 -0.098,0.20287 -0.2762,0.38665 -0.4762,0.49181 -0.1321,0.0695 -0.1822,0.0783 -0.4441,0.0786 -0.3497,3.3e-4 -0.5054,-0.0596 -0.7242,-0.27884 -0.2153,-0.21588 -0.2784,-0.37639 -0.279,-0.70968 0,-0.24896 0.01,-0.29961 0.084,-0.45146 l 0.084,-0.17104 -0.2186,-0.25696 c -0.1203,-0.14134 -0.2618,-0.28599 -0.3143,-0.32145 -0.1326,-0.0894 -0.2923,-0.10216 -1.1553,-0.092 l -0.7526,0.009 v 1.13643 c 0,1.10237 0,1.14056 0.063,1.27444 0.1235,0.26727 0.3938,0.50323 0.658,0.57447 0.104,0.0281 1.5514,0.0367 6.4165,0.0382 l 6.2821,0.002 z m -9.9545,-1.26811 c 0.1846,-0.13141 0.259,-0.3931 0.1715,-0.60255 -0.054,-0.12925 -0.2311,-0.27918 -0.3579,-0.30297 -0.3106,-0.0583 -0.6057,0.18726 -0.6057,0.50385 0,0.18723 0.1424,0.39212 0.3246,0.46709 0.099,0.0406 0.3723,0.002 0.4675,-0.0654 z m 10.4576,-2.511417 0.088,-0.0876 -0.01,-0.85964 -0.01,-0.85965 -0.071,-0.0579 c -0.068,-0.0552 -0.1147,-0.0575 -1.0183,-0.049 -0.9137,0.009 -0.9516,0.0112 -1.082,0.0754 -0.2195,0.1082 -0.3705,0.25808 -0.4761,0.47286 -0.088,0.17753 -0.097,0.22289 -0.096,0.44891 0,0.29881 0.062,0.45699 0.2505,0.66228 0.2911,0.31572 0.3846,0.33735 1.4698,0.33985 l 0.8656,0.002 0.088,-0.0876 z m -8.5019,-0.48286 c 0.1695,-0.0894 0.2618,-0.24804 0.2625,-0.45094 0,-0.26453 -0.1798,-0.45488 -0.4532,-0.47755 -0.383,-0.0318 -0.6506,0.33325 -0.4976,0.67904 0.1259,0.28449 0.4199,0.39105 0.6883,0.24945 z m -2.01,-3.01594 c 0.297,-0.15357 0.3519,-0.58959 0.102,-0.80905 -0.2049,-0.17987 -0.4712,-0.17987 -0.6761,0 -0.2458,0.21578 -0.203,0.62215 0.084,0.79707 0.1128,0.0688 0.3684,0.075 0.4903,0.012 z m -1.5147,-2.741687 c -0.2282,-0.59459 -0.2948,-1.46654 -0.1488,-1.94754 0.016,-0.0525 -0.01,-0.0544 -0.5251,-0.0434 -0.5088,0.0108 -0.5518,0.0162 -0.7076,0.0885 -0.2327,0.10788 -0.3931,0.26414 -0.5054,0.49212 -0.085,0.17179 -0.096,0.2241 -0.096,0.43221 0,0.2891 0.064,0.44716 0.27,0.66674 0.1534,0.16397 0.358,0.28318 0.5518,0.32155 0.067,0.0133 0.3596,0.0257 0.6495,0.0274 0.4374,0.003 0.5244,-0.004 0.5115,-0.0376 z m 3.5681,-0.48313 c 0,-0.46969 0.011,-0.55382 0.08,-0.81254 0.1878,-0.69672 0.5762,-1.29094 1.1349,-1.73601 l 0.2128,-0.16959 -0.1195,-0.10809 c -0.3055,-0.27592 -0.7665,-0.51088 -1.229,-0.626337 -0.2755,-0.0688 -0.9504,-0.0683 -1.2276,7.6e-4 -0.816,0.203477 -1.5186,0.760157 -1.8615,1.475047 -0.3441,0.71742 -0.3729,1.56215 -0.077,2.2722 l 0.095,0.22846 1.4952,1e-5 h 1.4954 v -0.52394 z m 5.9854,0.42801 c 0.043,-0.25535 0.051,-0.50315 0.02,-0.7416 -0.1497,-1.18825 -1.0347,-2.15421 -2.1914,-2.39213 -0.2859,-0.0588 -0.8393,-0.0608 -1.1062,-0.004 -0.9467,0.20144 -1.7233,0.86021 -2.0443,1.73427 -0.1332,0.36303 -0.1613,0.52941 -0.1627,0.96806 0,0.2354 0.01,0.45125 0.02,0.47966 0.019,0.0487 0.1781,0.0517 2.7343,0.0517 h 2.7134 z m 1.7906,-0.84601 v -0.94194 l -0.091,-0.0764 -0.09,-0.0764 h -0.7187 -0.7187 l 0.099,0.22876 c 0.201,0.46474 0.3063,1.10131 0.2551,1.54229 -0.015,0.12176 -0.02,0.23135 -0.014,0.24352 0.01,0.0122 0.2973,0.0221 0.6454,0.0221 h 0.6329 z"
       id="path29121-8" />
    <circle
       style="fill:#ffffff;fill-opacity:1;stroke:#000000;stroke-width:0.529;stroke-miterlimit:4;stroke-dasharray:none;stroke-opacity:1;filter:url(#filter26514)"
       id="path14707"
       cx="4123.5586"
       cy="150.20068"
       r="19.540022" />
    <path
       style="fill:#000000;stroke-width:0.0411222"
       d="m 4122.0369,160.6699 c -0.6019,-0.14914 -1.1414,-0.64633 -1.2944,-1.19294 l -0.053,-0.18839 h -0.3792 c -0.2085,0 -0.438,-0.0205 -0.5099,-0.0456 -0.252,-0.0878 -0.2516,-0.0848 -0.2516,-2.16982 v -1.89051 l 0.1065,-0.12652 c 0.097,-0.115 0.1285,-0.12652 0.3495,-0.12652 0.2741,0 0.271,0.006 0.182,-0.32897 -0.1319,-0.49627 -0.3263,-0.79754 -0.9014,-1.39712 -0.9456,-0.98569 -1.4544,-1.86875 -1.728,-2.99837 -0.2359,-0.97438 -0.231,-1.96818 0.015,-2.9399 0.5773,-2.28365 2.3968,-4.03534 4.7319,-4.55553 0.3737,-0.0832 0.5426,-0.0962 1.2543,-0.0962 0.9178,0 1.2003,0.0422 1.9483,0.29107 0.917,0.30508 1.6753,0.77943 2.3916,1.496 0.8786,0.87902 1.4295,1.88748 1.6927,3.09872 0.1324,0.6089 0.1324,1.87392 0,2.48282 -0.2648,1.21866 -0.781,2.1674 -1.6959,3.11692 -0.5705,0.59215 -0.6429,0.68411 -0.8211,1.04342 -0.1248,0.2514 -0.257,0.72175 -0.2147,0.76397 0.013,0.0127 0.1226,0.0231 0.2443,0.0231 0.18,0 0.24,0.0188 0.3221,0.10093 l 0.101,0.10094 v 1.95287 1.95288 l -0.098,0.11353 c -0.093,0.10834 -0.1188,0.11455 -0.561,0.13594 l -0.4634,0.0224 -0.049,0.16581 c -0.1707,0.57991 -0.7544,1.09338 -1.3771,1.21147 -0.3186,0.0604 -2.6849,0.0472 -2.9418,-0.0165 z m 2.9482,-0.73062 c 0.2433,-0.0729 0.65,-0.46587 0.65,-0.62811 0,-0.0124 -0.9438,-0.0226 -2.0973,-0.0226 -1.1534,0 -2.0972,0.0157 -2.0972,0.035 0,0.0664 0.2399,0.36575 0.3637,0.45392 0.285,0.20295 0.3172,0.20689 1.7082,0.2086 0.8904,0.001 1.3629,-0.0139 1.4726,-0.0467 z m 1.8334,-1.93578 -0.011,-0.54487 -3.259,-0.0105 -3.2589,-0.0105 v 0.55539 0.5554 h 3.2704 3.2704 z m 0,-1.80937 -0.011,-0.54487 -3.259,-0.0105 -3.2589,-0.0105 v 0.5554 0.5554 h 3.2704 3.2704 z m -5.09,-4.22375 v -2.95925 l 0.7793,-1.17102 c 0.4286,-0.64406 0.816,-1.19065 0.8609,-1.21465 0.1231,-0.0659 0.27,-0.0526 0.3806,0.0344 0.055,0.0429 0.4364,0.58453 0.8486,1.20357 l 0.7493,1.12555 v 2.97186 2.97187 l 0.3781,-0.0118 0.378,-0.0118 0.05,-0.2673 c 0.1351,-0.72311 0.4244,-1.22775 1.1018,-1.92198 0.9474,-0.97099 1.3875,-1.76406 1.6333,-2.94324 0.1155,-0.55443 0.1231,-1.44313 0.017,-2.00217 -0.2158,-1.13857 -0.7482,-2.12586 -1.5812,-2.93216 -0.7835,-0.75837 -1.7083,-1.24088 -2.7855,-1.45333 -0.4896,-0.0965 -1.5088,-0.0956 -1.9673,0.002 -1.742,0.37024 -3.1212,1.41997 -3.8963,2.96552 -0.6475,1.2909 -0.7428,2.865 -0.2553,4.2144 0.282,0.78062 0.6664,1.37506 1.3496,2.08722 0.2765,0.28822 0.5596,0.60731 0.6291,0.70908 0.2694,0.3944 0.4923,0.947 0.5681,1.40844 l 0.025,0.1542 h 0.3682 0.3682 z m 1.4392,0.52164 v -2.4376 l -0.3495,-0.17336 -0.3495,-0.17335 v 2.61096 2.61095 h 0.3495 0.3495 z m 1.4804,-0.17365 c 0,-1.4362 -0.01,-2.61126 -0.02,-2.61126 -0.011,0 -0.1775,0.0781 -0.3701,0.17365 l -0.3502,0.17366 v 2.4376 2.4376 h 0.3702 0.37 z m -0.6379,-3.1141 c 0.2378,-0.11824 0.4323,-0.22937 0.4323,-0.24694 0,-0.0452 -0.8713,-1.34763 -0.9008,-1.34661 -0.02,7e-4 -0.4972,0.70364 -0.8395,1.23611 l -0.075,0.11646 0.4449,0.22586 c 0.2448,0.12423 0.4587,0.22682 0.4753,0.22799 0.017,0.001 0.2249,-0.0946 0.4626,-0.21287 z m -8.2669,4.14402 c -0.1704,-0.17041 -0.115,-0.44123 0.1185,-0.57922 0.7817,-0.462 1.3359,-0.75912 1.4162,-0.75912 0.1416,0 0.3383,0.212 0.3383,0.36464 0,0.18791 -0.124,0.29191 -0.8351,0.70085 -0.7226,0.41545 -0.8593,0.45141 -1.0379,0.27285 z m 14.5234,-0.3028 c -0.733,-0.42536 -0.8405,-0.52671 -0.7869,-0.74146 0.039,-0.15607 0.1351,-0.24754 0.2912,-0.27682 0.1186,-0.0222 0.2231,0.0247 0.827,0.37139 0.3803,0.21827 0.7238,0.43497 0.7633,0.48156 0.1057,0.12441 0.094,0.36971 -0.023,0.47965 -0.1759,0.16518 -0.3162,0.12401 -1.0715,-0.31432 z m -15.6905,-4.06356 c -0.1183,-0.15042 -0.1115,-0.36257 0.016,-0.48979 0.1008,-0.10079 0.1022,-0.10094 0.9683,-0.10094 0.866,0 0.8674,1.4e-4 0.9682,0.10094 0.1366,0.13662 0.1394,0.38317 0.01,0.50873 -0.092,0.0861 -0.128,0.0894 -0.9839,0.0894 h -0.8888 z m 15.9711,0.007 c -0.1415,-0.14148 -0.1341,-0.32457 0.019,-0.47794 l 0.1202,-0.1202 h 0.8493 0.8494 l 0.1202,0.1202 c 0.066,0.0661 0.1202,0.15956 0.1202,0.20766 0,0.11916 -0.1056,0.31448 -0.1869,0.34567 -0.037,0.0141 -0.4545,0.0256 -0.9287,0.0256 -0.8604,0 -0.8622,-1.4e-4 -0.9629,-0.10094 z m -14.0825,-3.91181 c -0.3732,-0.21604 -0.7022,-0.41598 -0.7313,-0.44431 -0.029,-0.0283 -0.064,-0.11876 -0.077,-0.20097 -0.021,-0.12852 -0.01,-0.16699 0.101,-0.27472 0.079,-0.0786 0.1672,-0.12528 0.2378,-0.12528 0.1266,0 1.4335,0.73418 1.549,0.87018 0.1062,0.12512 0.093,0.34665 -0.029,0.46816 -0.1755,0.17543 -0.3025,0.14001 -1.0505,-0.29306 z m 13.1326,0.29652 c -0.1513,-0.13019 -0.1571,-0.35592 -0.013,-0.49563 0.1716,-0.16592 1.4011,-0.84617 1.5293,-0.84617 0.2791,0 0.4343,0.41459 0.2266,0.60514 -0.1757,0.16125 -1.3984,0.83414 -1.5155,0.83414 -0.063,0 -0.1655,-0.0439 -0.2278,-0.0975 z m -9.8222,-2.59153 c -0.1689,-0.0739 -0.9253,-1.3776 -0.9253,-1.59485 0,-0.27494 0.3565,-0.43173 0.5681,-0.24986 0.096,0.0825 0.8173,1.32251 0.8537,1.46774 0.035,0.14108 -0.082,0.33544 -0.2341,0.38858 -0.072,0.0251 -0.1327,0.0449 -0.1349,0.044 0,-7e-4 -0.06,-0.0259 -0.1275,-0.0556 z m 7.3103,0.0244 c -0.1242,-0.0187 -0.2579,-0.19804 -0.2579,-0.34586 0,-0.12401 0.663,-1.32023 0.8329,-1.50267 0.086,-0.0919 0.2754,-0.12226 0.4195,-0.067 0.077,0.0294 0.1869,0.22426 0.1869,0.33031 0,0.0809 -0.7096,1.34281 -0.8323,1.48019 -0.083,0.0934 -0.1978,0.12781 -0.3491,0.10501 z m -3.7037,-0.9972 c -0.175,-0.0702 -0.2141,-0.26114 -0.2141,-1.04666 0,-0.80171 0.038,-0.97704 0.2269,-1.04887 0.1746,-0.0664 0.2658,-0.048 0.3931,0.0793 l 0.1202,0.1202 v 0.84933 0.84934 l -0.1202,0.1202 c -0.123,0.12305 -0.2373,0.14477 -0.4059,0.0771 z"
       id="path15234" />
  </g>
</svg>
